<svg xmlns="http://www.w3.org/2000/svg" xmlns:xlink="http://www.w3.org/1999/xlink" fill="none" version="1.1" width="64" height="64" viewBox="0 0 64 64"><defs><clipPath id="master_svg0_0_24426"><rect x="0" y="0" width="64" height="64" rx="0"/></clipPath></defs><g clip-path="url(#master_svg0_0_24426)"><g><g><path d="M57.5,59.5C57.5,59.5,50.5,59.5,50.5,59.5C50.5,59.5,50.5,0.5,50.5,0.5C50.5,0.5,13.5,0.5,13.5,0.5C13.5,0.5,13.5,39.5,13.5,39.5C13.5,39.5,6.5,39.5,6.5,39.5C6.5,39.5,6.5,43.5,6.5,43.5C6.5,43.5,17.5,43.5,17.5,43.5C17.5,43.5,17.5,4.5,17.5,4.5C17.5,4.5,46.5,4.5,46.5,4.5C46.5,4.5,46.5,59.5,46.5,59.5C46.5,59.5,17.5,59.5,17.5,59.5C17.5,59.5,17.5,48,17.5,48C17.5,48,13.5,48,13.5,48C13.5,48,13.5,59.5,13.5,59.5C13.5,59.5,6.5,59.5,6.5,59.5C6.5,59.5,6.5,63.5,6.5,63.5C6.5,63.5,57.5,63.5,57.5,63.5C57.5,63.5,57.5,59.5,57.5,59.5Z" fill="#475569" fill-opacity="1"/></g><g><path d="M24,13.5C24,13.5,28,13.5,28,13.5C28,13.5,28,17.5,28,17.5C28,17.5,24,17.5,24,17.5C24,17.5,24,13.5,24,13.5Z" fill="#475569" fill-opacity="1"/></g><g><path d="M36,13.5C36,13.5,40,13.5,40,13.5C40,13.5,40,17.5,40,17.5C40,17.5,36,17.5,36,17.5C36,17.5,36,13.5,36,13.5Z" fill="#475569" fill-opacity="1"/></g><g><path d="M24,28.5C24,28.5,28,28.5,28,28.5C28,28.5,28,32.5,28,32.5C28,32.5,24,32.5,24,32.5C24,32.5,24,28.5,24,28.5Z" fill="#475569" fill-opacity="1"/></g><g><path d="M36,28.5C36,28.5,40,28.5,40,28.5C40,28.5,40,32.5,40,32.5C40,32.5,36,32.5,36,32.5C36,32.5,36,28.5,36,28.5Z" fill="#475569" fill-opacity="1"/></g><g><path d="M24,43.5C24,43.5,28,43.5,28,43.5C28,43.5,28,47.5,28,47.5C28,47.5,24,47.5,24,47.5C24,47.5,24,43.5,24,43.5Z" fill="#475569" fill-opacity="1"/></g><g><path d="M36,43.5C36,43.5,40,43.5,40,43.5C40,43.5,40,47.5,40,47.5C40,47.5,36,47.5,36,47.5C36,47.5,36,43.5,36,43.5Z" fill="#475569" fill-opacity="1"/></g></g></g></svg>