<svg width="58" height="59" viewBox="0 0 58 59" fill="none" xmlns="http://www.w3.org/2000/svg">
<path d="M9.1665 3.625V55.375H26.1665V45.3125H31.8332V55.375H48.8332V3.625H9.1665ZM14.8332 9.375H20.4998V15.125H14.8332V9.375ZM26.1665 9.375H31.8332V15.125H26.1665V9.375ZM37.4998 9.375H43.1665V15.125H37.4998V9.375ZM14.8332 20.875H20.4998V26.625H14.8332V20.875ZM26.1665 20.875H31.8332V26.625H26.1665V20.875ZM37.4998 20.875H43.1665V26.625H37.4998V20.875ZM14.8332 32.375H20.4998V38.125H14.8332V32.375ZM26.1665 32.375H31.8332V38.125H26.1665V32.375ZM37.4998 32.375H43.1665V38.125H37.4998V32.375ZM14.8332 43.875H20.4998V49.625H14.8332V43.875ZM37.4998 43.875H43.1665V49.625H37.4998V43.875Z" fill="#64748B"/>
</svg>
