<svg xmlns="http://www.w3.org/2000/svg" xmlns:xlink="http://www.w3.org/1999/xlink" fill="none" version="1.1" width="77" height="61" viewBox="0 0 77 61"><defs><clipPath id="master_svg0_0_24447"><rect x="0" y="0" width="77" height="61" rx="0"/></clipPath></defs><g clip-path="url(#master_svg0_0_24447)"><g><g><g><path d="M60.66481065603793,61.000047144785526C60.66481065603793,61.000047144785526,60.57491065603793,61.000047144785526,60.57491065603793,61.000047144785526C58.057210656037924,60.969847144785525,55.599410656037925,60.939647144785525,53.261610656037924,60.939647144785525C51.31331065603793,60.939647144785525,49.42511065603793,60.939647144785525,47.59671065603793,60.969847144785525C47.59671065603793,60.969847144785525,47.50681065603793,60.969847144785525,47.50681065603793,60.969847144785525C45.94821065603793,60.969847144785525,43.340610656037924,60.39694714478552,43.340610656037924,56.567447144785525C43.340610656037924,55.51214714478552,43.340610656037924,54.456747144785524,43.340610656037924,53.37124714478552C43.340610656037924,50.86854714478552,43.31061065603792,48.305447144785525,43.370610656037925,45.77264714478552C43.370610656037925,45.19974714478552,43.31061065603792,44.77754714478552,43.13081065603792,44.59664714478552C42.95091065603793,44.41574714478553,42.561310656037925,44.32524714478552,42.02181065603793,44.32524714478552C42.02181065603793,44.32524714478552,41.961810656037926,44.32524714478552,41.961810656037926,44.32524714478552C39.713910656037925,44.35544714478552,37.43601065603792,44.35544714478552,35.18801065603793,44.32524714478552C35.18801065603793,44.32524714478552,35.128110656037926,44.32524714478552,35.128110656037926,44.32524714478552C34.588510656037926,44.32524714478552,34.198910656037924,44.41574714478553,34.019110656037924,44.59664714478552C33.83921065603793,44.77754714478552,33.74931065603793,45.19974714478552,33.77931065603792,45.77264714478552C33.83921065603793,48.72764714478552,33.83921065603793,51.742947144785525,33.80931065603792,54.637647144785525C33.80931065603792,54.637647144785525,33.80931065603792,56.115147144785524,33.80931065603792,56.115147144785524C33.77931065603792,59.67324714478552,32.550410656037926,60.939647144785525,29.103510656037926,60.939647144785525C28.234310656037927,60.939647144785525,27.365110656037928,60.939647144785525,26.49591065603793,60.939647144785525C26.49591065603793,60.939647144785525,22.659410656037927,60.939647144785525,22.659410656037927,60.939647144785525C20.86104065603793,60.939647144785525,18.703000656037926,60.939647144785525,16.574930656037928,60.969847144785525C16.574930656037928,60.969847144785525,16.485010656037925,60.969847144785525,16.485010656037925,60.969847144785525C15.196190656037928,60.969847144785525,14.237060656037926,60.63814714478552,13.547680656037926,59.94464714478552C12.858311656037927,59.25114714478552,12.528610656037927,58.256047144785526,12.528610656037927,56.95944714478552C12.528610656037927,54.60754714478552,12.528610656037927,52.285747144785525,12.528610656037927,49.93374714478552C12.528610656037927,45.863047144785526,12.528610883818926,41.67174714478553,12.588556356037927,37.54074714478553C12.618529156037926,36.39494714478552,13.277929656037927,35.00794714478552,14.237060656037926,34.22394714478553C18.553130656037926,30.515047144785523,23.079010656037926,26.776047144785522,27.425110656037926,23.157687144785523C30.332410656037926,20.745427144785523,33.26971065603793,18.303017144785525,36.177110656037925,15.860604144785523C36.986410656037926,15.197232144785524,37.765710656037925,14.865547144785523,38.57491065603793,14.865547144785523C39.38421065603792,14.865547144785523,40.16351065603793,15.197232144785524,40.972710656037926,15.860604144785523C43.70031065603793,18.122097144785524,46.42781065603793,20.41373714478552,49.155310656037926,22.675237144785523C53.71121065603793,26.444347144785525,58.38691065603793,30.334147144785526,62.972710656037926,34.22394714478553C64.02181065603793,35.09834714478552,64.53131065603793,36.66634714478552,64.59131065603793,37.75184714478552C64.68121065603793,40.10384714478552,64.68121065603793,42.48594714478553,64.65121065603793,44.77754714478552C64.65121065603793,45.65204714478553,64.65121065603793,46.52644714478552,64.65121065603793,47.40084714478552C64.65121065603793,48.24514714478553,64.65121065603793,49.089447144785524,64.65121065603793,49.93374714478552C64.65121065603793,52.255547144785524,64.65121065603793,54.637647144785525,64.65121065603793,56.98964714478552C64.65121065603793,58.28624714478552,64.35151065603793,59.25114714478552,63.662110656037925,59.974747144785525C62.94281065603793,60.66834714478552,61.983610656037925,61.000047144785526,60.66481065603793,61.000047144785526ZM53.261610656037924,58.22594714478552C55.599410656037925,58.22594714478552,58.057210656037924,58.256047144785526,60.60491065603793,58.28624714478552C60.60491065603793,58.28624714478552,60.66481065603793,58.28624714478552,60.66481065603793,58.28624714478552C61.17441065603793,58.28624714478552,61.56401065603793,58.19574714478552,61.713910656037925,58.044947144785525C61.863710656037924,57.894247144785524,61.95371065603793,57.532347144785525,61.923710656037926,57.019747144785526C61.893710656037925,54.637647144785525,61.893710656037925,52.255547144785524,61.923710656037926,49.93374714478552C61.923710656037926,49.089447144785524,61.923710656037926,48.24514714478553,61.923710656037926,47.43104714478552C61.923710656037926,46.55664714478552,61.923710656037926,45.682147144785525,61.923710656037926,44.80774714478552C61.95371065603793,42.546247144785525,61.95371065603793,40.19424714478552,61.863710656037924,37.90264714478552C61.833810656037926,37.29954714478552,61.50411065603792,36.57584714478553,61.204310656037926,36.33464714478552C56.61851065603793,32.47504714478552,51.94281065603793,28.585247144785523,47.38691065603793,24.816117144785522C44.65941065603793,22.554627144785524,41.93191065603793,20.293127144785522,39.204310656037926,18.001487144785525C38.90461065603793,17.760257144785523,38.66481065603793,17.639647144785524,38.51501065603793,17.639647144785524C38.36511065603793,17.639647144785524,38.125310656037925,17.760257144785523,37.855610656037925,18.001487144785525C34.94821065603793,20.443897144785524,32.01091065603792,22.856157144785524,29.103510656037926,25.298547144785523C24.757510656037926,28.916947144785524,20.26158065603793,32.65594714478553,15.855590656037926,36.36484714478553C15.495910656037927,36.66634714478552,15.196190656037928,37.32974714478553,15.196190656037928,37.66134714478552C15.136240656037927,41.79234714478552,15.136240656037927,45.98364714478552,15.136240656037927,50.02424714478553C15.136240656037927,52.37614714478552,15.136240656037927,54.728147144785524,15.136240656037927,57.04994714478552C15.136240656037927,57.562547144785526,15.226160656037926,57.95454714478552,15.376020656037927,58.10524714478552C15.525890656037927,58.256047144785526,15.885560656037926,58.346547144785525,16.395100656037926,58.346547144785525C16.395100656037926,58.346547144785525,16.455040656037927,58.346547144785525,16.455040656037927,58.346547144785525C18.613080656037926,58.316347144785524,20.741140656037928,58.316347144785524,22.569510656037927,58.316347144785524C22.569510656037927,58.316347144785524,26.406010656037928,58.316347144785524,26.406010656037928,58.316347144785524C27.275210656037927,58.316347144785524,28.144410656037927,58.316347144785524,29.013610656037926,58.316347144785524C30.272510656037927,58.316347144785524,30.632110656037927,58.13544714478552,30.722110656037927,58.044947144785525C30.842010656037928,57.92434714478552,31.02181065603793,57.532347144785525,31.02181065603793,56.17544714478552C31.02181065603793,56.17544714478552,31.02181065603793,54.69794714478552,31.02181065603793,54.69794714478552C31.051810656037926,51.80324714478552,31.051810656037926,48.848247144785525,30.991810656037927,45.923347144785524C30.961810656037926,44.53634714478552,31.291510656037925,43.511147144785525,32.01091065603792,42.787447144785524C32.730210656037926,42.06374714478552,33.719310656037926,41.70194714478552,35.03811065603793,41.70194714478552C35.03811065603793,41.70194714478552,35.128110656037926,41.70194714478552,35.128110656037926,41.70194714478552C37.37601065603793,41.732047144785525,39.59401065603792,41.732047144785525,41.84201065603793,41.70194714478552C41.84201065603793,41.70194714478552,41.93191065603793,41.70194714478552,41.93191065603793,41.70194714478552C43.28061065603792,41.70194714478552,44.26971065603793,42.06374714478552,44.98911065603793,42.787447144785524C45.70841065603793,43.511147144785525,46.03811065603793,44.53634714478552,46.008210656037924,45.923347144785524C45.94821065603793,48.426147144785524,45.97821065603792,50.98914714478553,45.97821065603792,53.46164714478552C45.97821065603792,54.51704714478552,45.97821065603792,55.602547144785525,45.97821065603792,56.657947144785524C45.97821065603792,58.10524714478552,46.367810656037925,58.346547144785525,47.44691065603793,58.346547144785525C47.44691065603793,58.346547144785525,47.50681065603793,58.346547144785525,47.50681065603793,58.346547144785525C49.39511065603793,58.256047144785526,51.31331065603793,58.22594714478552,53.261610656037924,58.22594714478552Z" fill="#475569" fill-opacity="1"/></g></g><g><g><path d="M70.88554356314242,38.05335323914588C69.74664356314241,38.05335323914588,68.87734356314242,37.29955323914587,67.43874356314242,36.06325323914587C67.01904356314242,35.70145323914588,66.50954356314242,35.27925323914587,65.94004356314242,34.796853239145875C58.92644356314242,29.007453239145875,51.82284356314242,23.127553239145875,44.95914356314242,17.428553239145874C44.95914356314242,17.428553239145874,40.46324356314242,13.689553239145875,40.46324356314242,13.689553239145875C39.65394356314242,12.996053239145875,38.78474356314242,12.302553239145874,38.51494356314242,12.272353239145875C38.27524356314242,12.302553239145874,37.435943563142416,12.996053239145875,36.62674356314242,13.659453239145876C34.01904356314242,15.830453239145875,31.41144356314242,17.971353239145873,28.80384356314242,20.142353239145876C22.32974356314242,25.509653239145877,15.61584356314242,31.087953239145875,9.051773563142419,36.60605323914587C8.00272356314242,37.480453239145874,7.073573563142419,37.90265323914588,6.174383563142419,37.90265323914588C4.675753563142419,37.90265323914588,3.626703563142419,36.78695323914587,2.9673035631424187,35.942653239145876C2.607633563142419,35.490353239145875,2.307903563142419,35.09835323914587,2.0381435631424187,34.766653239145874C0.5694825631424189,32.95745323914588,-0.14986343685758113,32.02275323914587,-3.685758113991522e-8,30.816653239145875C0.11989056314241886,29.610453239145876,1.0190735631424188,28.886753239145875,2.637603563142419,27.590253239145873C3.027243563142419,27.258553239145876,3.476843563142419,26.896653239145873,3.9863735631424184,26.474553239145877C13.907343563142419,18.212553239145876,23.738443563142418,10.071153239145875,33.20984356314242,2.2916432391458748C35.09804356314242,0.753831239145875,36.77654356314242,0.030153239145874977,38.51494356314242,0.030153239145874977C40.25344356314242,0.030153239145874977,41.961843563142416,0.753831239145875,43.88014356314242,2.2916432391458748C43.88014356314242,2.2916432391458748,44.26974356314242,2.593183239145875,44.26974356314242,2.593183239145875C46.577643563142416,4.432523239145875,48.85554356314242,6.332183239145875,51.28334356314242,8.322293239145875C52.42234356314242,9.287193239145875,53.62124356314242,10.252053239145875,54.85014356314242,11.277353239145874C54.85014356314242,11.277353239145874,67.28884356314242,21.650053239145876,67.28884356314242,21.650053239145876C68.81744356314242,22.825953239145875,70.28614356314242,24.062253239145875,71.72484356314241,25.298553239145875C72.92374356314242,26.293653239145875,74.15254356314242,27.318853239145874,75.35154356314241,28.283753239145874C76.34064356314242,29.067753239145876,76.88014356314243,29.881853239145876,76.97004356314243,30.816653239145875C77.08994356314241,32.052853239145875,76.40054356314242,33.047953239145876,75.86104356314242,33.71135323914587C75.86104356314242,33.71135323914587,75.23164356314241,34.49535323914588,75.23164356314241,34.49535323914588C73.25344356314243,36.93775323914588,72.35424356314242,38.05335323914588,70.88554356314242,38.05335323914588ZM38.54494356314242,9.558573239145876C39.71394356314242,9.558573239145876,40.61304356314242,10.282253239145875,42.20164356314242,11.608953239145874C42.20164356314242,11.608953239145874,42.23164356314242,11.639153239145875,42.23164356314242,11.639153239145875C42.23164356314242,11.639153239145875,46.69754356314242,15.347953239145875,46.69754356314242,15.347953239145875C53.56134356314242,21.046953239145875,60.66484356314242,26.956953239145875,67.64854356314243,32.71625323914588C68.24794356314241,33.22885323914588,68.75744356314242,33.651053239145874,69.20704356314242,34.04305323914588C69.83654356314241,34.58575323914587,70.55584356314242,35.218953239145876,70.85554356314242,35.33955323914587C71.24524356314242,35.09835323914587,72.17434356314241,33.982653239145876,73.13354356314242,32.776553239145876C73.13354356314242,32.776553239145876,73.76294356314241,31.992553239145874,73.76294356314241,31.992553239145874C74.27244356314242,31.359353239145875,74.27244356314242,31.118153239145876,74.27244356314242,31.118153239145876C74.27244356314242,31.118153239145876,74.24254356314242,30.907053239145874,73.67304356314241,30.424653239145876C72.41414356314242,29.429553239145875,71.18524356314242,28.374153239145876,69.98634356314241,27.379153239145875C68.54764356314242,26.173053239145876,67.07904356314242,24.936753239145876,65.61034356314242,23.790953239145875C65.61034356314242,23.790953239145875,65.58034356314242,23.760753239145874,65.58034356314242,23.760753239145874C65.58034356314242,23.760753239145874,53.141643563142416,13.357853239145875,53.141643563142416,13.357853239145875C51.91284356314242,12.332653239145875,50.71394356314242,11.367753239145875,49.57494356314242,10.402853239145875C47.177143563142415,8.412753239145875,44.86924356314242,6.513103239145875,42.59124356314242,4.673753239145875C42.59124356314242,4.673753239145875,42.23164356314242,4.372223239145875,42.23164356314242,4.372223239145875C40.792943563142416,3.226393239145875,39.62394356314242,2.683633239145875,38.54494356314242,2.683633239145875C37.46594356314242,2.683633239145875,36.32694356314242,3.196243239145875,34.94824356314242,4.342063239145875C25.47684356314242,12.151753239145876,15.64574356314242,20.293153239145877,5.724793563142419,28.555153239145874C5.215253563142419,28.977253239145874,4.735693563142419,29.369253239145873,4.346053563142418,29.700953239145875C3.656673563142419,30.243653239145875,2.9673035631424187,30.816653239145875,2.727523563142419,31.087953239145875C2.877383563142419,31.449853239145874,3.5367835631424187,32.26395323914588,4.166213563142419,33.047953239145876C4.465943563142419,33.40975323914588,4.765663563142419,33.801753239145874,5.125343563142419,34.254053239145875C5.784743563142419,35.09835323914587,6.1144435631424185,35.18885323914588,6.234333563142419,35.18885323914588C6.354223563142419,35.18885323914588,6.683923563142419,35.12855323914587,7.4032735631424185,34.525453239145875C13.96734356314242,29.007453239145875,20.68124356314242,23.429053239145876,27.15534356314242,18.061753239145876C29.762943563142418,15.920953239145875,32.34064356314242,13.749853239145875,34.94824356314242,11.608953239145874C36.50684356314242,10.252053239145875,37.37604356314242,9.558573239145876,38.54494356314242,9.558573239145876Z" fill="#475569" fill-opacity="1"/></g></g></g></g></svg>