<svg width="77" height="61" viewBox="0 0 77 61" fill="none" xmlns="http://www.w3.org/2000/svg">
<g clip-path="url(#clip0_568_2030)">
<path d="M60.6646 61H60.5746C58.0569 60.9699 55.5992 60.9397 53.2613 60.9397C51.3131 60.9397 49.4248 60.9397 47.5964 60.9699H47.5065C45.9479 60.9699 43.3403 60.397 43.3403 56.5675C43.3403 55.5122 43.3403 54.4568 43.3403 53.3713C43.3403 50.8686 43.3103 48.3055 43.3703 45.7727C43.3703 45.1998 43.3103 44.7776 43.1305 44.5967C42.9507 44.4158 42.561 44.3253 42.0215 44.3253H41.9616C39.7136 44.3555 37.4357 44.3555 35.1877 44.3253H35.1278C34.5883 44.3253 34.1986 44.4158 34.0188 44.5967C33.8389 44.7776 33.749 45.1998 33.779 45.7727C33.8389 48.7277 33.8389 51.743 33.809 54.6377V56.1152C33.779 59.6733 32.5501 60.9397 29.1033 60.9397C28.234 60.9397 27.3648 60.9397 26.4956 60.9397H22.6591C20.8607 60.9397 18.7027 60.9397 16.5746 60.9699H16.4847C15.1959 60.9699 14.2368 60.6382 13.5474 59.9447C12.858 59.2512 12.5283 58.2561 12.5283 56.9595C12.5283 54.6076 12.5283 52.2858 12.5283 49.9338C12.5283 45.8631 12.5283 41.6718 12.5883 37.5408C12.6182 36.395 13.2776 35.008 14.2368 34.224C18.5528 30.5151 23.0787 26.7761 27.4248 23.1577C30.3321 20.7455 33.2695 18.3031 36.1768 15.8607C36.9861 15.1973 37.7654 14.8656 38.5746 14.8656C39.3839 14.8656 40.1632 15.1973 40.9725 15.8607C43.7 18.1221 46.4275 20.4138 49.155 22.6753C53.7109 26.4444 58.3866 30.3342 62.9725 34.224C64.0215 35.0984 64.531 36.6664 64.591 37.7519C64.6809 40.1039 64.6809 42.486 64.6509 44.7776C64.6509 45.6521 64.6509 46.5265 64.6509 47.4009C64.6509 48.2452 64.6509 49.0895 64.6509 49.9338C64.6509 52.2556 64.6509 54.6377 64.6509 56.9897C64.6509 58.2863 64.3512 59.2512 63.6618 59.9748C62.9425 60.6684 61.9834 61 60.6646 61ZM53.2613 58.226C55.5992 58.226 58.0569 58.2561 60.6046 58.2863H60.6646C61.1741 58.2863 61.5637 58.1958 61.7136 58.045C61.8635 57.8943 61.9534 57.5324 61.9234 57.0198C61.8934 54.6377 61.8934 52.2556 61.9234 49.9338C61.9234 49.0895 61.9234 48.2452 61.9234 47.4311C61.9234 46.5567 61.9234 45.6822 61.9234 44.8078C61.9534 42.5463 61.9534 40.1943 61.8635 37.9027C61.8335 37.2996 61.5038 36.5759 61.2041 36.3347C56.6182 32.4751 51.9425 28.5853 47.3866 24.8162C44.6591 22.5547 41.9316 20.2932 39.2041 18.0015C38.9043 17.7603 38.6646 17.6397 38.5147 17.6397C38.3648 17.6397 38.1251 17.7603 37.8553 18.0015C34.9479 20.4439 32.0106 22.8562 29.1033 25.2986C24.7572 28.917 20.2613 32.656 15.8553 36.3649C15.4956 36.6664 15.1959 37.3298 15.1959 37.6614C15.136 41.7924 15.136 45.9837 15.136 50.0243C15.136 52.3762 15.136 54.7282 15.136 57.05C15.136 57.5626 15.2259 57.9546 15.3757 58.1053C15.5256 58.2561 15.8853 58.3466 16.3948 58.3466H16.4548C18.6128 58.3164 20.7409 58.3164 22.5692 58.3164H26.4057C27.2749 58.3164 28.1441 58.3164 29.0133 58.3164C30.2722 58.3164 30.6319 58.1355 30.7218 58.045C30.8417 57.9244 31.0215 57.5324 31.0215 56.1755V54.698C31.0515 51.8033 31.0515 48.8483 30.9915 45.9234C30.9616 44.5364 31.2913 43.5112 32.0106 42.7875C32.73 42.0638 33.7191 41.702 35.0379 41.702H35.1278C37.3757 41.7321 39.5937 41.7321 41.8417 41.702H41.9316C43.2804 41.702 44.2695 42.0638 44.9888 42.7875C45.7082 43.5112 46.0379 44.5364 46.0079 45.9234C45.9479 48.4262 45.9779 50.9892 45.9779 53.4617C45.9779 54.5171 45.9779 55.6026 45.9779 56.658C45.9779 58.1053 46.3676 58.3466 47.4466 58.3466H47.5065C49.3948 58.2561 51.3131 58.226 53.2613 58.226Z" fill="#FF5C1D"/>
<path d="M70.8855 38.0534C69.7465 38.0534 68.8773 37.2995 67.4386 36.0633C67.019 35.7014 66.5095 35.2793 65.94 34.7968C58.9264 29.0074 51.8228 23.1275 44.9591 17.4286L40.4631 13.6896C39.6539 12.996 38.7847 12.3025 38.5149 12.2724C38.2751 12.3025 37.4359 12.996 36.6266 13.6594C34.019 15.8304 31.4114 17.9713 28.8037 20.1424C22.3296 25.5096 15.6157 31.088 9.0517 36.606C8.00265 37.4805 7.07349 37.9026 6.17431 37.9026C4.67567 37.9026 3.62663 36.7869 2.96723 35.9427C2.60755 35.4904 2.30783 35.0984 2.03807 34.7667C0.569408 32.9575 -0.149939 32.0227 -7.48113e-05 30.8166C0.119816 29.6105 1.019 28.8868 2.63753 27.5902C3.02717 27.2585 3.47676 26.8967 3.9863 26.4745C13.9073 18.2126 23.7383 10.0712 33.2097 2.29164C35.098 0.753829 36.7765 0.0301514 38.5149 0.0301514C40.2533 0.0301514 41.9618 0.753829 43.88 2.29164L44.2697 2.59318C46.5776 4.43252 48.8555 6.33218 51.2833 8.32229C52.4223 9.2872 53.6212 10.2521 54.8501 11.2773L67.2888 21.65C68.8174 22.826 70.286 24.0623 71.7247 25.2986C72.9236 26.2936 74.1525 27.3188 75.3514 28.2837C76.3405 29.0677 76.88 29.8819 76.9699 30.8166C77.0898 32.0529 76.4005 33.0479 75.861 33.7113L75.2315 34.4953C73.2533 36.9377 72.3541 38.0534 70.8855 38.0534ZM38.5449 9.55857C39.7138 9.55857 40.613 10.2823 42.2016 11.609L42.2315 11.6391L46.6975 15.348C53.5612 21.047 60.6648 26.957 67.6484 32.7163C68.2479 33.2289 68.7574 33.651 69.207 34.043C69.8364 34.5858 70.5558 35.219 70.8555 35.3396C71.2452 35.0984 72.1743 33.9827 73.1334 32.7766L73.7629 31.9926C74.2724 31.3594 74.2724 31.1181 74.2724 31.1181C74.2724 31.1181 74.2424 30.9071 73.673 30.4246C72.4141 29.4296 71.1852 28.3742 69.9863 27.3791C68.5476 26.173 67.0789 24.9367 65.6103 23.7909L65.5803 23.7607L53.1416 13.3579C51.9127 12.3327 50.7138 11.3678 49.5749 10.4029C47.177 8.41275 44.8691 6.5131 42.5912 4.67375L42.2315 4.37222C40.7928 3.22639 39.6239 2.68364 38.5449 2.68364C37.4659 2.68364 36.3269 3.19624 34.9482 4.34206C25.4768 12.1518 15.6457 20.2931 5.72472 28.5551C5.21518 28.9773 4.73562 29.3692 4.34597 29.7009C3.6566 30.2437 2.96723 30.8166 2.72745 31.088C2.87731 31.4498 3.53671 32.264 4.16614 33.0479C4.46587 33.4098 4.76559 33.8018 5.12527 34.2541C5.78467 35.0984 6.11437 35.1888 6.23426 35.1888C6.35415 35.1888 6.68385 35.1285 7.40319 34.5255C13.9672 29.0074 20.6811 23.4291 27.1552 18.0618C29.7629 15.9209 32.3405 13.7499 34.9482 11.609C36.5067 10.2521 37.3759 9.55857 38.5449 9.55857Z" fill="#FF5C1D"/>
</g>
<defs>
<clipPath id="clip0_568_2030">
<rect width="77" height="61" fill="white"/>
</clipPath>
</defs>
</svg>
