<svg width="65" height="65" viewBox="0 0 65 65" fill="none" xmlns="http://www.w3.org/2000/svg">
<g clip-path="url(#clip0_1694_5791)">
<path d="M49.4835 54H49.4146C47.4854 53.9767 45.6022 53.9535 43.8108 53.9535C42.318 53.9535 40.8712 53.9535 39.4702 53.9767H39.4013C38.2071 53.9767 36.209 53.5353 36.209 50.5847C36.209 49.7716 36.209 48.9584 36.209 48.122C36.209 46.1937 36.1861 44.2189 36.232 42.2674C36.232 41.826 36.1861 41.5007 36.0483 41.3613C35.9105 41.2219 35.6119 41.1522 35.1985 41.1522H35.1526C33.4301 41.1754 31.6847 41.1754 29.9623 41.1522H29.9163C29.5029 41.1522 29.2044 41.2219 29.0666 41.3613C28.9288 41.5007 28.8599 41.826 28.8828 42.2674C28.9288 44.5442 28.9288 46.8675 28.9058 49.0978V50.2362C28.8828 52.9777 27.9412 53.9535 25.3001 53.9535C24.6341 53.9535 23.9681 53.9535 23.3021 53.9535H20.3624C18.9844 53.9535 17.3309 53.9535 15.7003 53.9767H15.6314C14.6438 53.9767 13.9089 53.7212 13.3807 53.1868C12.8525 52.6524 12.5999 51.8858 12.5999 50.8868C12.5999 49.0746 12.5999 47.2857 12.5999 45.4735C12.5999 42.3371 12.5999 39.1077 12.6458 35.9248C12.6688 35.042 13.174 33.9733 13.9089 33.3692C17.216 30.5116 20.6839 27.6307 24.014 24.8428C26.2417 22.9841 28.4924 21.1023 30.7201 19.2204C31.3402 18.7093 31.9373 18.4537 32.5574 18.4537C33.1775 18.4537 33.7746 18.7093 34.3947 19.2204C36.4846 20.9629 38.5746 22.7286 40.6645 24.471C44.1553 27.3751 47.738 30.3722 51.2519 33.3692C52.0557 34.043 52.4461 35.2511 52.492 36.0874C52.5609 37.8996 52.5609 39.735 52.538 41.5007C52.538 42.1744 52.538 42.8482 52.538 43.5219C52.538 44.1725 52.538 44.823 52.538 45.4735C52.538 47.2624 52.538 49.0978 52.538 50.91C52.538 51.909 52.3083 52.6524 51.7801 53.21C51.2289 53.7444 50.494 54 49.4835 54ZM43.8108 51.8625C45.6022 51.8625 47.4854 51.8858 49.4375 51.909H49.4835C49.8739 51.909 50.1724 51.8393 50.2873 51.7231C50.4021 51.607 50.471 51.3282 50.448 50.9332C50.4251 49.0978 50.4251 47.2624 50.448 45.4735C50.448 44.823 50.448 44.1725 50.448 43.5452C50.448 42.8714 50.448 42.1977 50.448 41.5239C50.471 39.7815 50.471 37.9693 50.4021 36.2036C50.3791 35.739 50.1265 35.1814 49.8969 34.9955C46.383 32.0217 42.8003 29.0247 39.3095 26.1206C37.2196 24.3781 35.1296 22.6356 33.0397 20.8699C32.8101 20.6841 32.6263 20.5912 32.5115 20.5912C32.3967 20.5912 32.2129 20.6841 32.0062 20.8699C29.7785 22.7518 27.5278 24.6104 25.3001 26.4923C21.97 29.2802 18.5251 32.1611 15.1491 35.0187C14.8735 35.2511 14.6438 35.7622 14.6438 36.0178C14.5979 39.2006 14.5979 42.43 14.5979 45.5432C14.5979 47.3554 14.5979 49.1675 14.5979 50.9565C14.5979 51.3514 14.6668 51.6534 14.7816 51.7696C14.8965 51.8858 15.1721 51.9555 15.5625 51.9555H15.6084C17.262 51.9322 18.8926 51.9322 20.2935 51.9322H23.2332C23.8992 51.9322 24.5652 51.9322 25.2312 51.9322C26.1958 51.9322 26.4714 51.7928 26.5403 51.7231C26.6322 51.6302 26.77 51.3282 26.77 50.2827V49.1443C26.7929 46.9139 26.7929 44.6371 26.747 42.3835C26.724 41.3148 26.9767 40.5249 27.5278 39.9673C28.079 39.4097 28.8369 39.1309 29.8474 39.1309H29.9163C31.6388 39.1542 33.3383 39.1542 35.0607 39.1309H35.1296C36.1631 39.1309 36.921 39.4097 37.4722 39.9673C38.0234 40.5249 38.276 41.3148 38.253 42.3835C38.2071 44.3119 38.2301 46.2867 38.2301 48.1917C38.2301 49.0049 38.2301 49.8413 38.2301 50.6544C38.2301 51.7696 38.5286 51.9555 39.3554 51.9555H39.4013C40.8482 51.8858 42.318 51.8625 43.8108 51.8625Z" fill="#FF5C1D"/>
<path d="M57.3149 36.3198C56.4422 36.3198 55.7762 35.739 54.6738 34.7864C54.3523 34.5076 53.9619 34.1824 53.5255 33.8106C48.1514 29.3499 42.7085 24.8195 37.4492 20.4285L34.0043 17.5477C33.3842 17.0133 32.7182 16.479 32.5115 16.4557C32.3278 16.479 31.6847 17.0133 31.0646 17.5244C29.0666 19.1972 27.0685 20.8467 25.0705 22.5195C20.1098 26.6549 14.9654 30.953 9.93579 35.2046C9.13197 35.8784 8.42002 36.2036 7.73104 36.2036C6.58273 36.2036 5.77892 35.344 5.27366 34.6935C4.99807 34.345 4.76841 34.043 4.56171 33.7874C3.43637 32.3934 2.88518 31.6732 3.00002 30.7439C3.09188 29.8146 3.78086 29.257 5.02104 28.258C5.3196 28.0024 5.66409 27.7236 6.05451 27.3984C13.6563 21.0326 21.1892 14.7597 28.4465 8.76566C29.8934 7.58078 31.1795 7.02319 32.5115 7.02319C33.8435 7.02319 35.1526 7.58078 36.6224 8.76566L36.921 8.99798C38.6894 10.4152 40.4348 11.8789 42.2951 13.4122C43.1678 14.1557 44.0864 14.8991 45.028 15.689L54.559 23.6811C55.7303 24.5872 56.8556 25.5398 57.958 26.4923C58.8766 27.259 59.8182 28.0489 60.7369 28.7923C61.4948 29.3964 61.9082 30.0237 61.977 30.7439C62.0689 31.6965 61.5407 32.4631 61.1273 32.9743L60.645 33.5783C59.1293 35.4602 58.4403 36.3198 57.3149 36.3198ZM32.5345 14.3648C33.4301 14.3648 34.1191 14.9224 35.3363 15.9446L35.3593 15.9678L38.7813 18.8255C44.0405 23.2165 49.4835 27.7701 54.8346 32.2076C55.2939 32.6025 55.6843 32.9278 56.0288 33.2298C56.5111 33.648 57.0623 34.1359 57.292 34.2288C57.5905 34.043 58.3025 33.1834 59.0374 32.254L59.5197 31.65C59.9101 31.1621 59.9101 30.9762 59.9101 30.9762C59.9101 30.9762 59.8871 30.8136 59.4508 30.4419C58.4862 29.6752 57.5446 28.862 56.6259 28.0954C55.5236 27.1661 54.3982 26.2135 53.2729 25.3307L53.2499 25.3074L43.719 17.2921C42.7774 16.5022 41.8587 15.7587 40.986 15.0153C39.1487 13.4819 37.3803 12.0183 35.6349 10.601L35.3593 10.3687C34.2569 9.48587 33.3612 9.06768 32.5345 9.06768C31.7077 9.06768 30.835 9.46264 29.7785 10.3455C22.5212 16.3628 14.9883 22.6356 7.38655 29.0014C6.99612 29.3267 6.62867 29.6287 6.33011 29.8843C5.80188 30.3025 5.27366 30.7439 5.08993 30.953C5.20476 31.2318 5.71002 31.8591 6.19231 32.4631C6.42197 32.7419 6.65163 33.044 6.92722 33.3924C7.43248 34.043 7.68511 34.1127 7.77697 34.1127C7.86884 34.1127 8.12146 34.0662 8.67265 33.6015C13.7022 29.3499 18.8466 25.0519 23.8073 20.9164C25.8054 19.2669 27.7805 17.5941 29.7785 15.9446C30.9728 14.8991 31.6388 14.3648 32.5345 14.3648Z" fill="#FF5C1D"/>
</g>
<defs>
<clipPath id="clip0_1694_5791">
<rect width="59" height="47" fill="white" transform="translate(3 7)"/>
</clipPath>
</defs>
</svg>
