<svg xmlns="http://www.w3.org/2000/svg" xmlns:xlink="http://www.w3.org/1999/xlink" fill="none" version="1.1" width="16" height="16" viewBox="0 0 16 16"><defs><clipPath id="master_svg0_12_08418"><rect x="0" y="0" width="16" height="16" rx="0"/></clipPath></defs><g clip-path="url(#master_svg0_12_08418)"><g><path d="M1.5,1C1.22386,1,1,1.22386,1,1.5L1,4.5C1,4.77614,0.776142,5,0.5,5C0.223858,5,0,4.77614,0,4.5L0,1.5C-9.87562e-8,0.671573,0.671573,0,1.5,0L4.5,0C4.77614,0,5,0.223858,5,0.5C5,0.776142,4.77614,1,4.5,1L1.5,1ZM11,0.5C11,0.223858,11.2239,0,11.5,0L14.5,0C15.3284,0,16,0.671573,16,1.5L16,4.5C16,4.77614,15.7761,5,15.5,5C15.2239,5,15,4.77614,15,4.5L15,1.5C15,1.22386,14.7761,1,14.5,1L11.5,1C11.2239,1,11,0.776142,11,0.5ZM0.5,11C0.776142,11,1,11.2239,1,11.5L1,14.5C1,14.7761,1.22386,15,1.5,15L4.5,15C4.77614,15,5,15.2239,5,15.5C5,15.7761,4.77614,16,4.5,16L1.5,16C0.671573,16,0,15.3284,0,14.5L0,11.5C-3.29187e-8,11.2239,0.223858,11,0.5,11ZM15.5,11C15.7761,11,16,11.2239,16,11.5L16,14.5C16,15.3284,15.3284,16,14.5,16L11.5,16C11.2239,16,11,15.7761,11,15.5C11,15.2239,11.2239,15,11.5,15L14.5,15C14.7761,15,15,14.7761,15,14.5L15,11.5C15,11.2239,15.2239,11,15.5,11Z" fill="#667085" fill-opacity="1"/></g><g><path d="M3,14Q2,14,2,13C2,12,3,9,8,9C13,9,14,12,14,13Q14,14,13,14L3,14ZM11,5C11,6.65685,9.65685,8,8,8C6.34315,8,5,6.65685,5,5C5,3.34315,6.34315,2,8,2C9.65685,2,11,3.34315,11,5Z" fill="#667085" fill-opacity="1"/></g></g></svg>