<svg xmlns="http://www.w3.org/2000/svg" xmlns:xlink="http://www.w3.org/1999/xlink" fill="none" version="1.1" width="16" height="16" viewBox="0 0 16 16"><defs><clipPath id="master_svg0_12_08409"><rect x="0" y="0" width="16" height="16" rx="0"/></clipPath></defs><g clip-path="url(#master_svg0_12_08409)"><g><path d="M6,1L6,4L1,4L1,1L6,1ZM1,0C0.447715,0,0,0.447715,0,1L0,4C0,4.55228,0.447715,5,1,5L6,5C6.55228,5,7,4.55228,7,4L7,1C7,0.447715,6.55228,0,6,0L1,0ZM15,12L15,15L10,15L10,12L15,12ZM10,11C9.44771,11,9,11.4477,9,12L9,15C9,15.5523,9.44771,16,10,16L15,16C15.5523,16,16,15.5523,16,15L16,12C16,11.4477,15.5523,11,15,11L10,11ZM6,8L6,15L1,15L1,8L6,8ZM1,7C0.447715,7,0,7.44772,0,8L0,15C0,15.5523,0.447715,16,1,16L6,16C6.55228,16,7,15.5523,7,15L7,8C7,7.44772,6.55228,7,6,7L1,7ZM15,1L15,8L10,8L10,1L15,1ZM10,0C9.44771,0,9,0.447715,9,1L9,8C9,8.55229,9.44771,9,10,9L15,9C15.5523,9,16,8.55229,16,8L16,1C16,0.447715,15.5523,0,15,0L10,0Z" fill="#667085" fill-opacity="1"/></g></g></svg>