<svg xmlns="http://www.w3.org/2000/svg" xmlns:xlink="http://www.w3.org/1999/xlink" fill="none" version="1.1" width="16" height="16" viewBox="0 0 16 16"><defs><clipPath id="master_svg0_12_08405"><rect x="0" y="0" width="16" height="16" rx="0"/></clipPath></defs><g clip-path="url(#master_svg0_12_08405)"><g><path d="M13,0L6,0C4.89543,0,4,0.89543,4,2C2.895431,2,2,2.89543,2,4L2,14C2,15.1046,2.895431,16,4,16L11,16C12.1046,16,13,15.1046,13,14C14.1046,14,15,13.1046,15,12L15,2C15,0.89543,14.1046,0,13,0ZM13,13L13,4C13,2.89543,12.1046,2,11,2L5,2C5,1.44772,5.44772,1,6,1L13,1C13.5523,1,14,1.44772,14,2L14,12C14,12.5523,13.5523,13,13,13ZM3,4C3,3.44772,3.44772,3,4,3L11,3C11.55229,3,12,3.44772,12,4L12,14C12,14.5523,11.55229,15,11,15L4,15C3.44772,15,3,14.5523,3,14L3,4Z" fill="#667085" fill-opacity="1"/></g></g></svg>