<svg width="24" height="24" viewBox="0 0 24 24" fill="none" xmlns="http://www.w3.org/2000/svg">
<g clip-path="url(#clip0_1774_9357)">
<path d="M2.25 6L12 12L21.75 6" stroke="#475569" stroke-width="2" stroke-miterlimit="10" stroke-linecap="round" stroke-linejoin="round"/>
<path d="M20.25 16.5L17.25 19.5L15.75 18" stroke="#475569" stroke-width="2" stroke-miterlimit="10" stroke-linecap="round" stroke-linejoin="round"/>
<path d="M18 23.25C20.8995 23.25 23.25 20.8995 23.25 18C23.25 15.1005 20.8995 12.75 18 12.75C15.1005 12.75 12.75 15.1005 12.75 18C12.75 20.8995 15.1005 23.25 18 23.25Z" stroke="#475569" stroke-width="2" stroke-miterlimit="10" stroke-linecap="round" stroke-linejoin="round"/>
<path d="M12.825 18.75H5.25C3.6 18.75 2.25 17.4 2.25 15.75V5.25C2.25 3.6 3.6 2.25 5.25 2.25H18.75C20.4 2.25 21.75 3.6 21.75 5.25V14.325" stroke="#475569" stroke-width="2" stroke-miterlimit="10" stroke-linecap="round" stroke-linejoin="round"/>
</g>
<defs>
<clipPath id="clip0_1774_9357">
<rect width="24" height="24" fill="white"/>
</clipPath>
</defs>
</svg>
