<svg width="65" height="65" viewBox="0 0 65 65" fill="none" xmlns="http://www.w3.org/2000/svg">
<path d="M16.3438 26.625H19.2812V23.6875H16.3438V26.625ZM28.0938 23.6875H31.0312V20.75H28.0938V23.6875ZM33.9688 23.6875H36.9062V20.75H33.9688V23.6875ZM39.8438 23.6875H42.7812V20.75H39.8438V23.6875ZM28.0938 17.8125H31.0312V14.875H28.0938V17.8125ZM33.9688 17.8125H36.9062V14.875H33.9688V17.8125ZM39.8438 17.8125H42.7812V14.875H39.8438V17.8125ZM28.0938 35.4375H31.0312V32.5H28.0938V35.4375ZM33.9688 35.4375H36.9062V32.5H33.9688V35.4375ZM39.8438 35.4375H42.7812V32.5H39.8438V35.4375ZM28.0938 41.3125H31.0312V38.375H28.0938V41.3125ZM39.8438 41.3125H42.7812V38.375H39.8438V41.3125ZM28.0938 47.1875H31.0312V44.25H28.0938V47.1875ZM39.8438 47.1875H42.7812V44.25H39.8438V47.1875ZM48.6562 44.25H51.5938V41.3125H48.6562V44.25ZM48.6562 35.4375V38.375H51.5938V35.4375H48.6562ZM48.6562 50.125H51.5938V47.1875H48.6562V50.125ZM28.0938 29.5625H31.0312V26.625H28.0938V29.5625ZM33.9688 29.5625H36.9062V26.625H33.9688V29.5625ZM39.8438 29.5625H42.7812V26.625H39.8438V29.5625ZM16.3438 32.5H19.2812V29.5625H16.3438V32.5ZM16.3438 38.375H19.2812V35.4375H16.3438V38.375ZM16.3438 44.25H19.2812V41.3125H16.3438V44.25ZM16.3438 50.125H19.2812V47.1875H16.3438V50.125ZM33.9688 41.3125H36.9062V38.375H33.9688V41.3125Z" fill="#FEA02F"/>
<path fill-rule="evenodd" clip-rule="evenodd" d="M54.5312 53.0625C54.5312 54.6862 53.2175 56 51.5938 56H13.4062C11.7825 56 10.4688 54.6862 10.4688 53.0625V20.75C10.4688 19.1263 11.7825 17.8125 13.4062 17.8125H22.2188V11.9375C22.2188 10.3138 23.5325 9 25.1562 9H45.7188C47.3425 9 48.6562 10.3138 48.6562 11.9375V29.5625H51.5938C53.2175 29.5625 54.5312 30.8763 54.5312 32.5V53.0625ZM22.2188 20.75H13.4062V53.0625H22.2188V20.75ZM45.7188 11.9375H25.1562V53.0625H33.9688V44.25H36.9062V53.0625H45.7188V11.9375ZM51.5938 32.5H48.6562V53.0625H51.5938V32.5Z" fill="#FF5C1D"/>
</svg>
