<svg xmlns="http://www.w3.org/2000/svg" xmlns:xlink="http://www.w3.org/1999/xlink" fill="none" version="1.1" width="65" height="65" viewBox="0 0 65 65"><defs><clipPath id="master_svg0_0_24438"><rect x="0" y="0" width="65" height="65" rx="0"/></clipPath></defs><g clip-path="url(#master_svg0_0_24438)"><g><g><g><path d="M10.15625,24.375C10.15625,24.375,14.21875,24.375,14.21875,24.375C14.21875,24.375,14.21875,20.3125,14.21875,20.3125C14.21875,20.3125,10.15625,20.3125,10.15625,20.3125C10.15625,20.3125,10.15625,24.375,10.15625,24.375ZM26.40625,20.3125C26.40625,20.3125,30.46875,20.3125,30.46875,20.3125C30.46875,20.3125,30.46875,16.25,30.46875,16.25C30.46875,16.25,26.40625,16.25,26.40625,16.25C26.40625,16.25,26.40625,20.3125,26.40625,20.3125ZM34.53125,20.3125C34.53125,20.3125,38.59375,20.3125,38.59375,20.3125C38.59375,20.3125,38.59375,16.25,38.59375,16.25C38.59375,16.25,34.53125,16.25,34.53125,16.25C34.53125,16.25,34.53125,20.3125,34.53125,20.3125ZM42.65625,20.3125C42.65625,20.3125,46.71875,20.3125,46.71875,20.3125C46.71875,20.3125,46.71875,16.25,46.71875,16.25C46.71875,16.25,42.65625,16.25,42.65625,16.25C42.65625,16.25,42.65625,20.3125,42.65625,20.3125ZM26.40625,12.1875C26.40625,12.1875,30.46875,12.1875,30.46875,12.1875C30.46875,12.1875,30.46875,8.125,30.46875,8.125C30.46875,8.125,26.40625,8.125,26.40625,8.125C26.40625,8.125,26.40625,12.1875,26.40625,12.1875ZM34.53125,12.1875C34.53125,12.1875,38.59375,12.1875,38.59375,12.1875C38.59375,12.1875,38.59375,8.125,38.59375,8.125C38.59375,8.125,34.53125,8.125,34.53125,8.125C34.53125,8.125,34.53125,12.1875,34.53125,12.1875ZM42.65625,12.1875C42.65625,12.1875,46.71875,12.1875,46.71875,12.1875C46.71875,12.1875,46.71875,8.125,46.71875,8.125C46.71875,8.125,42.65625,8.125,42.65625,8.125C42.65625,8.125,42.65625,12.1875,42.65625,12.1875ZM26.40625,36.5625C26.40625,36.5625,30.46875,36.5625,30.46875,36.5625C30.46875,36.5625,30.46875,32.5,30.46875,32.5C30.46875,32.5,26.40625,32.5,26.40625,32.5C26.40625,32.5,26.40625,36.5625,26.40625,36.5625ZM34.53125,36.5625C34.53125,36.5625,38.59375,36.5625,38.59375,36.5625C38.59375,36.5625,38.59375,32.5,38.59375,32.5C38.59375,32.5,34.53125,32.5,34.53125,32.5C34.53125,32.5,34.53125,36.5625,34.53125,36.5625ZM42.65625,36.5625C42.65625,36.5625,46.71875,36.5625,46.71875,36.5625C46.71875,36.5625,46.71875,32.5,46.71875,32.5C46.71875,32.5,42.65625,32.5,42.65625,32.5C42.65625,32.5,42.65625,36.5625,42.65625,36.5625ZM26.40625,44.6875C26.40625,44.6875,30.46875,44.6875,30.46875,44.6875C30.46875,44.6875,30.46875,40.625,30.46875,40.625C30.46875,40.625,26.40625,40.625,26.40625,40.625C26.40625,40.625,26.40625,44.6875,26.40625,44.6875ZM42.65625,44.6875C42.65625,44.6875,46.71875,44.6875,46.71875,44.6875C46.71875,44.6875,46.71875,40.625,46.71875,40.625C46.71875,40.625,42.65625,40.625,42.65625,40.625C42.65625,40.625,42.65625,44.6875,42.65625,44.6875ZM26.40625,52.8125C26.40625,52.8125,30.46875,52.8125,30.46875,52.8125C30.46875,52.8125,30.46875,48.75,30.46875,48.75C30.46875,48.75,26.40625,48.75,26.40625,48.75C26.40625,48.75,26.40625,52.8125,26.40625,52.8125ZM42.65625,52.8125C42.65625,52.8125,46.71875,52.8125,46.71875,52.8125C46.71875,52.8125,46.71875,48.75,46.71875,48.75C46.71875,48.75,42.65625,48.75,42.65625,48.75C42.65625,48.75,42.65625,52.8125,42.65625,52.8125ZM54.84375,48.75C54.84375,48.75,58.90625,48.75,58.90625,48.75C58.90625,48.75,58.90625,44.6875,58.90625,44.6875C58.90625,44.6875,54.84375,44.6875,54.84375,44.6875C54.84375,44.6875,54.84375,48.75,54.84375,48.75ZM54.84375,36.5625C54.84375,36.5625,54.84375,40.625,54.84375,40.625C54.84375,40.625,58.90625,40.625,58.90625,40.625C58.90625,40.625,58.90625,36.5625,58.90625,36.5625C58.90625,36.5625,54.84375,36.5625,54.84375,36.5625ZM54.84375,56.875C54.84375,56.875,58.90625,56.875,58.90625,56.875C58.90625,56.875,58.90625,52.8125,58.90625,52.8125C58.90625,52.8125,54.84375,52.8125,54.84375,52.8125C54.84375,52.8125,54.84375,56.875,54.84375,56.875ZM26.40625,28.4375C26.40625,28.4375,30.46875,28.4375,30.46875,28.4375C30.46875,28.4375,30.46875,24.375,30.46875,24.375C30.46875,24.375,26.40625,24.375,26.40625,24.375C26.40625,24.375,26.40625,28.4375,26.40625,28.4375ZM34.53125,28.4375C34.53125,28.4375,38.59375,28.4375,38.59375,28.4375C38.59375,28.4375,38.59375,24.375,38.59375,24.375C38.59375,24.375,34.53125,24.375,34.53125,24.375C34.53125,24.375,34.53125,28.4375,34.53125,28.4375ZM42.65625,28.4375C42.65625,28.4375,46.71875,28.4375,46.71875,28.4375C46.71875,28.4375,46.71875,24.375,46.71875,24.375C46.71875,24.375,42.65625,24.375,42.65625,24.375C42.65625,24.375,42.65625,28.4375,42.65625,28.4375ZM10.15625,32.5C10.15625,32.5,14.21875,32.5,14.21875,32.5C14.21875,32.5,14.21875,28.4375,14.21875,28.4375C14.21875,28.4375,10.15625,28.4375,10.15625,28.4375C10.15625,28.4375,10.15625,32.5,10.15625,32.5ZM10.15625,40.625C10.15625,40.625,14.21875,40.625,14.21875,40.625C14.21875,40.625,14.21875,36.5625,14.21875,36.5625C14.21875,36.5625,10.15625,36.5625,10.15625,36.5625C10.15625,36.5625,10.15625,40.625,10.15625,40.625ZM10.15625,48.75C10.15625,48.75,14.21875,48.75,14.21875,48.75C14.21875,48.75,14.21875,44.6875,14.21875,44.6875C14.21875,44.6875,10.15625,44.6875,10.15625,44.6875C10.15625,44.6875,10.15625,48.75,10.15625,48.75ZM10.15625,56.875C10.15625,56.875,14.21875,56.875,14.21875,56.875C14.21875,56.875,14.21875,52.8125,14.21875,52.8125C14.21875,52.8125,10.15625,52.8125,10.15625,52.8125C10.15625,52.8125,10.15625,56.875,10.15625,56.875ZM34.53125,44.6875C34.53125,44.6875,38.59375,44.6875,38.59375,44.6875C38.59375,44.6875,38.59375,40.625,38.59375,40.625C38.59375,40.625,34.53125,40.625,34.53125,40.625C34.53125,40.625,34.53125,44.6875,34.53125,44.6875Z" fill="#94A3B8" fill-opacity="1"/></g></g></g><g><path d="M62.96875,60.9375C62.96875,63.183,61.15175,65,58.90625,65C58.90625,65,6.09375,65,6.09375,65C3.8482000000000003,65,2.03125,63.183,2.03125,60.9375C2.03125,60.9375,2.03125,16.25,2.03125,16.25C2.03125,14.0045,3.8482000000000003,12.1875,6.09375,12.1875C6.09375,12.1875,18.28125,12.1875,18.28125,12.1875C18.28125,12.1875,18.28125,4.0625,18.28125,4.0625C18.28125,1.81695,20.09825,0,22.34375,0C22.34375,0,50.78125,0,50.78125,0C53.02675,0,54.84375,1.81695,54.84375,4.0625C54.84375,4.0625,54.84375,28.4375,54.84375,28.4375C54.84375,28.4375,58.90625,28.4375,58.90625,28.4375C61.15175,28.4375,62.96875,30.2545,62.96875,32.5C62.96875,32.5,62.96875,60.9375,62.96875,60.9375ZM18.28125,16.25C18.28125,16.25,6.09375,16.25,6.09375,16.25C6.09375,16.25,6.09375,60.9375,6.09375,60.9375C6.09375,60.9375,18.28125,60.9375,18.28125,60.9375C18.28125,60.9375,18.28125,16.25,18.28125,16.25ZM50.78125,4.0625C50.78125,4.0625,22.34375,4.0625,22.34375,4.0625C22.34375,4.0625,22.34375,60.9375,22.34375,60.9375C22.34375,60.9375,34.53125,60.9375,34.53125,60.9375C34.53125,60.9375,34.53125,48.75,34.53125,48.75C34.53125,48.75,38.59375,48.75,38.59375,48.75C38.59375,48.75,38.59375,60.9375,38.59375,60.9375C38.59375,60.9375,50.78125,60.9375,50.78125,60.9375C50.78125,60.9375,50.78125,4.0625,50.78125,4.0625ZM58.90625,32.5C58.90625,32.5,54.84375,32.5,54.84375,32.5C54.84375,32.5,54.84375,60.9375,54.84375,60.9375C54.84375,60.9375,58.90625,60.9375,58.90625,60.9375C58.90625,60.9375,58.90625,32.5,58.90625,32.5Z" fill-rule="evenodd" fill="#475569" fill-opacity="1"/></g></g></svg>