<svg xmlns="http://www.w3.org/2000/svg" xmlns:xlink="http://www.w3.org/1999/xlink" fill="none" version="1.1" width="60" height="52" viewBox="0 0 60 52"><defs><clipPath id="master_svg0_0_24456"><rect x="0" y="0" width="60" height="52" rx="0"/></clipPath></defs><g clip-path="url(#master_svg0_0_24456)"><g><g><path d="M58.01963733190894,23.997926487019658C57.59143733190894,23.997926487019658,57.19003733190894,23.86452648701966,56.86883733190894,23.62422648701966C56.86883733190894,23.62422648701966,29.946437331908943,4.457906487019658,29.946437331908943,4.457906487019658C29.946437331908943,4.457906487019658,3.0240873319089414,23.62422648701966,3.0240873319089414,23.62422648701966C2.087417331908941,24.18482648701966,0.8563783319089413,23.86452648701966,0.26761833190894124,22.93022648701966C-0.24085666809105874,22.10262648701966,-0.05352366809105873,21.034926487019657,0.6958073319089413,20.394226487019658C0.6958073319089413,20.394226487019658,28.76893733190894,0.3737164870196581,28.76893733190894,0.3737164870196581C29.464737331908943,-0.1334705129803419,30.40143733190894,-0.1334705129803419,31.097237331908943,0.3737164870196581C31.097237331908943,0.3737164870196581,59.17043733190894,20.367526487019656,59.17043733190894,20.367526487019656C60.08033733190894,21.00822648701966,60.267637331908944,22.26282648701966,59.625337331908945,23.170426487019657C59.25063733190894,23.704326487019657,58.661937331908945,23.997926487019658,58.01963733190894,23.997926487019658Z" fill="#475569" fill-opacity="1"/></g><g><path d="M7.867978200896978,12.0123C6.770740200896978,12.0123,5.860838200896978,11.1047,5.860838200896978,10.0103C5.860838200896978,10.0103,5.860838200896978,2.00205,5.860838200896978,2.00205C5.887600000896978,0.907598,6.770740200896978,0,7.867978200896978,0C7.867978200896978,0,15.896538200896979,0,15.896538200896979,0C16.993738200896978,0,17.903638200896978,0.907598,17.903638200896978,2.00205C17.903638200896978,3.09651,17.02053820089698,4.00411,15.896538200896979,4.00411C15.896538200896979,4.00411,9.875108200896978,4.00411,9.875108200896978,4.00411C9.875108200896978,4.00411,9.875108200896978,10.0103,9.875108200896978,10.0103C9.875108200896978,11.1047,8.991968200896979,12.0123,7.867978200896978,12.0123Z" fill="#475569" fill-opacity="1"/></g><g><path d="M24.96880020956397,52.00004799275696C24.96880020956397,52.00004799275696,11.88225020956397,52.00004799275696,11.88225020956397,52.00004799275696C8.563780209563971,52.00004799275696,5.887600209563971,49.33054799275696,5.887600209563971,46.02054799275696C5.887600209563971,46.02054799275696,5.887600209563971,25.999997992756963,5.887600209563971,25.999997992756963C5.887600209563971,24.905545992756963,6.79750220956397,23.997947992756963,7.89474020956397,23.997947992756963C8.99197020956397,23.997947992756963,9.90187020956397,24.905545992756963,9.90187020956397,25.999997992756963C9.90187020956397,25.999997992756963,9.90187020956397,45.99384799275696,9.90187020956397,45.99384799275696C9.90187020956397,47.08824799275696,10.81177020956397,47.995847992756964,11.90901020956397,47.995847992756964C11.90901020956397,47.995847992756964,23.71100020956397,47.995847992756964,23.71100020956397,47.995847992756964C23.71100020956397,47.995847992756964,24.96880020956397,52.00004799275696,24.96880020956397,52.00004799275696Z" fill="#475569" fill-opacity="1"/></g><g><path d="M20.820698525756598,52.00004799275696C20.820698525756598,52.00004799275696,49.0008985257566,52.00004799275696,49.0008985257566,52.00004799275696C52.3193985257566,52.00004799275696,55.0222985257566,49.30394799275696,55.0222985257566,45.99384799275696C55.0222985257566,45.99384799275696,55.0222985257566,25.999997992756963,55.0222985257566,25.999997992756963C55.0222985257566,24.905545992756963,54.112398525756596,23.997947992756963,53.015198525756595,23.997947992756963C51.9178985257566,23.997947992756963,51.0079985257566,24.905545992756963,51.0079985257566,25.999997992756963C51.0079985257566,25.999997992756963,51.0079985257566,45.99384799275696,51.0079985257566,45.99384799275696C51.0079985257566,47.08824799275696,50.0980985257566,47.995847992756964,49.0008985257566,47.995847992756964C49.0008985257566,47.995847992756964,22.078498525756597,47.995847992756964,22.078498525756597,47.995847992756964C22.078498525756597,47.995847992756964,20.820698525756598,52.00004799275696,20.820698525756598,52.00004799275696Z" fill="#475569" fill-opacity="1"/></g></g></g></svg>