<svg width="63" height="49" viewBox="0 0 63 49" fill="none" xmlns="http://www.w3.org/2000/svg">
<path d="M49.6347 49H49.5611C47.5012 48.9758 45.4903 48.9515 43.5775 48.9515C41.9835 48.9515 40.4385 48.9515 38.9426 48.9758H38.869C37.5938 48.9758 35.4603 48.5156 35.4603 45.4394C35.4603 44.5917 35.4603 43.7439 35.4603 42.872C35.4603 40.8616 35.4358 38.8028 35.4848 36.7682C35.4848 36.3079 35.4358 35.9688 35.2886 35.8235C35.1415 35.6782 34.8227 35.6055 34.3813 35.6055H34.3322C32.493 35.6297 30.6292 35.6297 28.79 35.6055H28.7409C28.2995 35.6055 27.9807 35.6782 27.8336 35.8235C27.6865 35.9688 27.6129 36.3079 27.6374 36.7682C27.6865 39.1419 27.6865 41.564 27.6619 43.8893V45.0761C27.6374 47.9342 26.632 48.9515 23.8118 48.9515C23.1006 48.9515 22.3895 48.9515 21.6783 48.9515H18.5393C17.0679 48.9515 15.3023 48.9515 13.5611 48.9758H13.4875C12.433 48.9758 11.6483 48.7093 11.0843 48.1522C10.5202 47.5951 10.2505 46.7958 10.2505 45.7543C10.2505 43.865 10.2505 42 10.2505 40.1107C10.2505 36.8408 10.2505 33.474 10.2995 30.1557C10.3241 29.2353 10.8636 28.1211 11.6483 27.4913C15.1796 24.5121 18.8826 21.5086 22.4385 18.6021C24.8172 16.6643 27.2205 14.7024 29.5993 12.7405C30.2614 12.2076 30.899 11.9412 31.5611 11.9412C32.2232 11.9412 32.8608 12.2076 33.523 12.7405C35.7546 14.5571 37.9862 16.3979 40.2178 18.2145C43.9453 21.2422 47.7709 24.3668 51.523 27.4913C52.3813 28.1938 52.7982 29.4533 52.8472 30.3252C52.9208 32.2145 52.9208 34.128 52.8963 35.9688C52.8963 36.6713 52.8963 37.3737 52.8963 38.0761C52.8963 38.7543 52.8963 39.4325 52.8963 40.1107C52.8963 41.9758 52.8963 43.8893 52.8963 45.7785C52.8963 46.8201 52.651 47.5951 52.087 48.1765C51.4984 48.7335 50.7137 49 49.6347 49ZM43.5775 46.7716C45.4903 46.7716 47.5012 46.7958 49.5856 46.8201H49.6347C50.0516 46.8201 50.3704 46.7474 50.493 46.6263C50.6156 46.5052 50.6892 46.2145 50.6647 45.8028C50.6401 43.8893 50.6401 41.9758 50.6647 40.1107C50.6647 39.4325 50.6647 38.7543 50.6647 38.1003C50.6647 37.3979 50.6647 36.6955 50.6647 35.9931C50.6892 34.1765 50.6892 32.2872 50.6156 30.4464C50.5911 29.9619 50.3213 29.3806 50.0761 29.1868C46.3241 26.0865 42.4984 22.9619 38.7709 19.9342C36.5393 18.1176 34.3077 16.301 32.0761 14.4602C31.8309 14.2664 31.6347 14.1695 31.5121 14.1695C31.3895 14.1695 31.1933 14.2664 30.9726 14.4602C28.5938 16.4221 26.1905 18.3598 23.8118 20.3218C20.2559 23.2284 16.5775 26.2318 12.9726 29.2111C12.6783 29.4533 12.433 29.9861 12.433 30.2526C12.384 33.5709 12.384 36.9377 12.384 40.1834C12.384 42.0726 12.384 43.9619 12.384 45.827C12.384 46.2387 12.4576 46.5536 12.5802 46.6747C12.7028 46.7958 12.9971 46.8685 13.414 46.8685H13.463C15.2287 46.8443 16.9698 46.8443 18.4657 46.8443H21.6047C22.3159 46.8443 23.0271 46.8443 23.7382 46.8443C24.7682 46.8443 25.0625 46.6989 25.136 46.6263C25.2341 46.5294 25.3813 46.2145 25.3813 45.1246V43.9377C25.4058 41.6124 25.4058 39.2387 25.3568 36.8893C25.3322 35.7751 25.602 34.9515 26.1905 34.3702C26.7791 33.7889 27.5884 33.4983 28.6674 33.4983H28.7409C30.5802 33.5225 32.3949 33.5225 34.2341 33.4983H34.3077C35.4112 33.4983 36.2205 33.7889 36.8091 34.3702C37.3976 34.9515 37.6674 35.7751 37.6429 36.8893C37.5938 38.8996 37.6183 40.9585 37.6183 42.9446C37.6183 43.7924 37.6183 44.6643 37.6183 45.5121C37.6183 46.6747 37.9371 46.8685 38.82 46.8685H38.869C40.414 46.7958 41.9835 46.7716 43.5775 46.7716Z" fill="#64748B"/>
<path d="M57.9971 30.5674C57.0652 30.5674 56.354 29.9619 55.1769 28.9688C54.8336 28.6781 54.4167 28.339 53.9508 27.9515C48.2123 23.301 42.4004 18.5778 36.7845 13.9999L33.1061 10.9965C32.4439 10.4394 31.7328 9.8823 31.5121 9.85808C31.3159 9.8823 30.6292 10.4394 29.9671 10.9723C27.8336 12.7162 25.7001 14.4359 23.5666 16.1799C18.2696 20.4913 12.7764 24.9723 7.4058 29.4048C6.54749 30.1072 5.78727 30.4463 5.05158 30.4463C3.82542 30.4463 2.96711 29.5501 2.4276 28.8719C2.13332 28.5086 1.88809 28.1937 1.66738 27.9273C0.465746 26.474 -0.12281 25.7231 -0.000194378 24.7543C0.0978983 23.7854 0.833593 23.2041 2.15784 22.1626C2.47664 21.8961 2.84449 21.6055 3.26139 21.2664C11.3786 14.6297 19.4221 8.08991 27.1715 1.84078C28.7164 0.605485 30.0897 0.0241699 31.5121 0.0241699C32.9344 0.0241699 34.3322 0.605485 35.9017 1.84078L36.2205 2.08299C38.1088 3.5605 39.9726 5.08645 41.9589 6.68507C42.8908 7.46016 43.8717 8.23524 44.8772 9.05877L55.0543 17.391C56.305 18.3356 57.5066 19.3287 58.6837 20.3217C59.6647 21.1211 60.6701 21.9446 61.651 22.7197C62.4603 23.3494 62.9017 24.0034 62.9753 24.7543C63.0734 25.7474 62.5093 26.5467 62.0679 27.0795L61.5529 27.7093C59.9344 29.6712 59.1987 30.5674 57.9971 30.5674ZM31.5366 7.67815C32.493 7.67815 33.2287 8.25946 34.5284 9.32521L34.5529 9.34943L38.2069 12.3287C43.8227 16.9065 49.6347 21.6539 55.3486 26.2802C55.839 26.692 56.2559 27.0311 56.6238 27.346C57.1388 27.782 57.7273 28.2906 57.9726 28.3875C58.2914 28.1937 59.0516 27.2975 59.8363 26.3287L60.3513 25.6989C60.7682 25.1903 60.7682 24.9965 60.7682 24.9965C60.7682 24.9965 60.7437 24.8269 60.2777 24.4394C59.2478 23.6401 58.2423 22.7923 57.2614 21.993C56.0843 21.0242 54.8826 20.0311 53.681 19.1107L53.6565 19.0865L43.4794 10.7301C42.4739 9.90652 41.493 9.13144 40.5611 8.35635C38.5993 6.75773 36.711 5.23178 34.8472 3.75427L34.5529 3.51206C33.3758 2.59164 32.4194 2.15566 31.5366 2.15566C30.6538 2.15566 29.7219 2.56742 28.5938 3.48784C20.8445 9.76119 12.8009 16.301 4.68373 22.9377C4.26684 23.2768 3.87446 23.5916 3.55566 23.8581C2.99163 24.2941 2.4276 24.7543 2.23141 24.9723C2.35403 25.2629 2.89354 25.9169 3.40852 26.5467C3.65376 26.8373 3.89899 27.1522 4.19327 27.5155C4.73278 28.1937 5.00253 28.2664 5.10062 28.2664C5.19872 28.2664 5.46847 28.2179 6.05703 27.7335C11.4276 23.301 16.9208 18.82 22.2178 14.5086C24.3513 12.7889 26.4603 11.0449 28.5938 9.32521C29.869 8.23524 30.5802 7.67815 31.5366 7.67815Z" fill="#64748B"/>
</svg>
