<svg width="65" height="65" viewBox="0 0 65 65" fill="none" xmlns="http://www.w3.org/2000/svg">
<g clip-path="url(#clip0_1694_5790)">
<path d="M57.4407 30.6905C57.0537 30.6905 56.6909 30.5699 56.4006 30.3527L32.0669 13.0293L7.73319 30.3527C6.88659 30.8594 5.77391 30.5699 5.24176 29.7254C4.78218 28.9775 4.9515 28.0124 5.62878 27.4333L31.0026 9.33783C31.6315 8.87941 32.4781 8.87941 33.107 9.33783L58.4808 27.4092C59.3032 27.9882 59.4725 29.1222 58.892 29.9426C58.5534 30.4251 58.0212 30.6905 57.4407 30.6905Z" fill="#FF5C1D"/>
<path d="M12.1113 19.8573C11.1195 19.8573 10.2971 19.037 10.2971 18.0477V10.8095C10.3213 9.82033 11.1195 9 12.1113 9H19.3678C20.3596 9 21.182 9.82033 21.182 10.8095C21.182 11.7988 20.3838 12.6191 19.3678 12.6191H13.9254V18.0477C13.9254 19.037 13.1272 19.8573 12.1113 19.8573Z" fill="#FF5C1D"/>
<path d="M27.5677 56.0001H15.7395C12.7401 56.0001 10.3213 53.5874 10.3213 50.5956V32.5001C10.3213 31.5109 11.1437 30.6906 12.1354 30.6906C13.1272 30.6906 13.9496 31.5109 13.9496 32.5001V50.5715C13.9496 51.5607 14.772 52.381 15.7637 52.381H26.4309L27.5677 56.0001Z" fill="#FF5C1D"/>
<path d="M23.8186 56.0001H49.2892C52.2885 56.0001 54.7316 53.5632 54.7316 50.5715V32.5001C54.7316 31.5109 53.9092 30.6906 52.9175 30.6906C51.9257 30.6906 51.1033 31.5109 51.1033 32.5001V50.5715C51.1033 51.5607 50.2809 52.381 49.2892 52.381H24.9555L23.8186 56.0001Z" fill="#FF5C1D"/>
</g>
<defs>
<clipPath id="clip0_1694_5790">
<rect width="54.2308" height="47" fill="white" transform="translate(5 9)"/>
</clipPath>
</defs>
</svg>
