<svg width="24" height="24" viewBox="0 0 24 24" fill="none" xmlns="http://www.w3.org/2000/svg">
<g clip-path="url(#clip0_1543_2926)">
<path d="M12 13.5C14.0711 13.5 15.75 11.8211 15.75 9.75C15.75 7.67893 14.0711 6 12 6C9.92893 6 8.25 7.67893 8.25 9.75C8.25 11.8211 9.92893 13.5 12 13.5Z" stroke="#64748B" stroke-width="2" stroke-linecap="round" stroke-linejoin="round"/>
<path d="M17.25 21C17.25 19.6076 16.6969 18.2723 15.7123 17.2877C14.7277 16.3031 13.3924 15.75 12 15.75C10.6076 15.75 9.27226 16.3031 8.28769 17.2877C7.30312 18.2723 6.75 19.6076 6.75 21H17.25Z" stroke="#64748B" stroke-width="2" stroke-linecap="round" stroke-linejoin="round"/>
<path d="M18 10.5C18.6392 10.5 19.2678 10.3366 19.8261 10.0253C20.3844 9.71406 20.8539 9.26524 21.1899 8.72149C21.526 8.17775 21.7175 7.55712 21.7462 6.91856C21.7749 6.27999 21.64 5.64468 21.3541 5.07295C21.0682 4.50122 20.641 4.01205 20.1129 3.6519C19.5848 3.29174 18.9734 3.07256 18.3368 3.01515C17.7001 2.95775 17.0594 3.06403 16.4754 3.32391C15.8914 3.58379 15.3835 3.98863 15 4.5" stroke="#64748B" stroke-width="2" stroke-linecap="round" stroke-linejoin="round"/>
<path d="M18.75 18H23.25C23.25 16.6076 22.6969 15.2723 21.7123 14.2877C20.7277 13.3031 19.3924 12.75 18 12.75" stroke="#64748B" stroke-width="2" stroke-linecap="round" stroke-linejoin="round"/>
<path d="M9 4.5C8.61647 3.98863 8.1086 3.58379 7.5246 3.32391C6.9406 3.06403 6.29986 2.95775 5.66323 3.01515C5.0266 3.07256 4.41521 3.29174 3.88712 3.6519C3.35903 4.01205 2.93176 4.50122 2.6459 5.07295C2.36003 5.64468 2.22506 6.27999 2.25379 6.91856C2.28252 7.55712 2.47401 8.17775 2.81006 8.72149C3.14611 9.26524 3.61558 9.71406 4.17388 10.0253C4.73219 10.3366 5.36079 10.5 6 10.5" stroke="#64748B" stroke-width="2" stroke-linecap="round" stroke-linejoin="round"/>
<path d="M6 12.75C4.60761 12.75 3.27226 13.3031 2.28769 14.2877C1.30312 15.2723 0.75 16.6076 0.75 18H5.25" stroke="#64748B" stroke-width="2" stroke-linecap="round" stroke-linejoin="round"/>
</g>
<defs>
<clipPath id="clip0_1543_2926">
<rect width="24" height="24" fill="white"/>
</clipPath>
</defs>
</svg>
