<svg xmlns="http://www.w3.org/2000/svg" xmlns:xlink="http://www.w3.org/1999/xlink" fill="none" version="1.1" width="24" height="24" viewBox="0 0 24 24"><defs><clipPath id="master_svg0_0_20886/0_4710"><rect x="0" y="0" width="24" height="24" rx="0"/></clipPath></defs><g clip-path="url(#master_svg0_0_20886/0_4710)"><g><path d="M21.1,12.5C21.1,12.5,22.5,13.91,22.5,13.91C22.5,13.91,15.97,20.5,15.97,20.5C15.97,20.5,12.5,17,12.5,17C12.5,17,13.9,15.59,13.9,15.59C13.9,15.59,15.97,17.67,15.97,17.67C15.97,17.67,21.1,12.5,21.1,12.5ZM11,4C12.06087,4.000000000000001,13.0783,4.4214269999999996,13.8284,5.17157C14.5786,5.9217200000000005,15,6.9391300000000005,15,8C15,9.060870000000001,14.5786,10.07828,13.8284,10.82843C13.0783,11.57857,12.06087,12,11,12C9.939129999999999,12,8.92172,11.57857,8.17157,10.82843C7.42143,10.07828,7,9.060870000000001,7,8C7,6.9391300000000005,7.42143,5.9217200000000005,8.17157,5.17157C8.92172,4.4214269999999996,9.939129999999999,4.000000000000001,11,4ZM11,6C10.469570000000001,6,9.96086,6.210710000000001,9.58579,6.585789999999999C9.210709999999999,6.96086,9,7.46957,9,8C9,8.530429999999999,9.210709999999999,9.03914,9.58579,9.41421C9.96086,9.789290000000001,10.469570000000001,10,11,10C11.53043,10,12.03914,9.789290000000001,12.41421,9.41421C12.78929,9.03914,13,8.530429999999999,13,8C13,7.46957,12.78929,6.96086,12.41421,6.585789999999999C12.03914,6.210710000000001,11.53043,6,11,6ZM11,13C11.68,13,12.5,13.09,13.41,13.26C13.41,13.26,11.74,14.93,11.74,14.93C11.74,14.93,11,14.9,11,14.9C8.030000000000001,14.9,4.9,16.36,4.9,17C4.9,17,4.9,18.1,4.9,18.1C4.9,18.1,11.1,18.1,11.1,18.1C11.1,18.1,13,20,13,20C13,20,3,20,3,20C3,20,3,17,3,17C3,14.34,8.33,13,11,13Z" fill="#64748B" fill-opacity="1"/></g></g></svg>