<svg width="67" height="67" viewBox="0 0 67 67" fill="none" xmlns="http://www.w3.org/2000/svg">
<path d="M33.5002 32.1041C31.6492 32.1041 29.874 31.3688 28.5651 30.0599C27.2563 28.7511 26.521 26.9759 26.521 25.1249C26.521 23.2739 27.2563 21.4988 28.5651 20.1899C29.874 18.8811 31.6492 18.1458 33.5002 18.1458C35.3512 18.1458 37.1263 18.8811 38.4352 20.1899C39.744 21.4988 40.4793 23.2739 40.4793 25.1249C40.4793 26.0414 40.2988 26.949 39.9481 27.7957C39.5973 28.6425 39.0833 29.4119 38.4352 30.0599C37.7871 30.708 37.0177 31.2221 36.171 31.5728C35.3242 31.9236 34.4167 32.1041 33.5002 32.1041ZM33.5002 5.58325C28.3174 5.58325 23.3469 7.6421 19.6821 11.3069C16.0173 14.9716 13.9585 19.9421 13.9585 25.1249C13.9585 39.7812 33.5002 61.4166 33.5002 61.4166C33.5002 61.4166 53.0418 39.7812 53.0418 25.1249C53.0418 19.9421 50.983 14.9716 47.3182 11.3069C43.6534 7.6421 38.6829 5.58325 33.5002 5.58325Z" fill="#64748B"/>
</svg>
