<svg width="11" height="14" viewBox="0 0 11 14" fill="none" xmlns="http://www.w3.org/2000/svg">
<path d="M10.044 11.362V13.036H1.71L1.35 11.92C1.854 11.38 2.226 10.846 2.466 10.318C2.706 9.778 2.826 9.112 2.826 8.32C2.826 8.08 2.796 7.828 2.736 7.564H0.756V6.142H2.286C2.034 5.386 1.908 4.654 1.908 3.946C1.908 3.142 2.082 2.446 2.43 1.858C2.778 1.27 3.258 0.819999 3.87 0.508C4.482 0.184 5.19 0.0219997 5.994 0.0219997C7.278 0.0219997 8.25 0.382 8.91 1.102C9.57 1.822 9.912 2.74 9.936 3.856H8.064C8.064 3.208 7.896 2.698 7.56 2.326C7.224 1.942 6.702 1.75 5.994 1.75C5.346 1.75 4.824 1.936 4.428 2.308C4.044 2.68 3.852 3.262 3.852 4.054C3.852 4.402 3.888 4.738 3.96 5.062C4.032 5.386 4.134 5.746 4.266 6.142H7.758V7.564H4.68C4.74 7.84 4.77 8.098 4.77 8.338C4.77 9.502 4.368 10.51 3.564 11.362H10.044Z" fill="#020617"/>
</svg>
