<svg width="63" height="63" viewBox="0 0 63 63" fill="none" xmlns="http://www.w3.org/2000/svg">
<path d="M36.75 55.125C41.8162 55.125 46.2525 52.0537 47.25 47.25L42.6562 44.94C42 47.8013 40.2413 49.875 36.75 49.875H23.8875C26.0663 47.25 27.825 43.7325 27.825 39.375C27.825 38.4562 27.7463 37.5637 27.5625 36.75H36.75V31.5H25.7775C23.625 27.3525 21 25.2 21 21C21 15.9338 25.1213 11.8125 30.1875 11.8125C34.125 11.8125 37.5112 14.3063 38.7975 17.7975L43.6537 15.75C41.5537 10.3688 36.33 6.5625 30.1875 6.5625C22.2075 6.5625 15.75 13.02 15.75 21C15.75 25.6725 17.8238 28.6125 19.6875 31.5H15.75V36.75H22.2338C22.4438 37.5637 22.575 38.43 22.575 39.375C22.575 46.4625 15.75 49.875 15.75 49.875V55.125H36.75Z" fill="#64748B"/>
</svg>
