<svg xmlns="http://www.w3.org/2000/svg" xmlns:xlink="http://www.w3.org/1999/xlink" fill="none" version="1.1" width="16" height="16" viewBox="0 0 16 16"><defs><clipPath id="master_svg0_12_08423"><rect x="0" y="0" width="16" height="16" rx="0"/></clipPath></defs><g clip-path="url(#master_svg0_12_08423)"><g><path d="M3,0C2.447715,0,2,0.447715,2,1L2,15C2,15.5523,2.447715,16,3,16L6,16L6,12.5C6,12.2239,6.22386,12,6.5,12L9.5,12C9.77614,12,10,12.2239,10,12.5L10,16L13,16C13.5523,16,14,15.5523,14,15L14,1C14,0.447715,13.5523,0,13,0L3,0ZM4,2.5C4,2.22386,4.22386,2,4.5,2L5.5,2C5.77614,2,6,2.22386,6,2.5L6,3.5C6,3.77614,5.77614,4,5.5,4L4.5,4C4.22386,4,4,3.77614,4,3.5L4,2.5ZM7,2.5C7,2.22386,7.22386,2,7.5,2L8.5,2C8.77614,2,9,2.22386,9,2.5L9,3.5C9,3.77614,8.77614,4,8.5,4L7.5,4C7.22386,4,7,3.77614,7,3.5L7,2.5ZM10.5,2L11.5,2C11.77614,2,12,2.22386,12,2.5L12,3.5C12,3.77614,11.77614,4,11.5,4L10.5,4C10.22386,4,10,3.77614,10,3.5L10,2.5C10,2.22386,10.22386,2,10.5,2ZM4,5.5C4,5.22386,4.22386,5,4.5,5L5.5,5C5.77614,5,6,5.22386,6,5.5L6,6.5C6,6.77614,5.77614,7,5.5,7L4.5,7C4.22386,7,4,6.77614,4,6.5L4,5.5ZM7.5,5L8.5,5C8.77614,5,9,5.22386,9,5.5L9,6.5C9,6.77614,8.77614,7,8.5,7L7.5,7C7.22386,7,7,6.77614,7,6.5L7,5.5C7,5.22386,7.22386,5,7.5,5ZM10,5.5C10,5.22386,10.22386,5,10.5,5L11.5,5C11.77614,5,12,5.22386,12,5.5L12,6.5C12,6.77614,11.77614,7,11.5,7L10.5,7C10.22386,7,10,6.77614,10,6.5L10,5.5ZM4.5,8L5.5,8C5.77614,8,6,8.22386,6,8.5L6,9.5C6,9.77614,5.77614,10,5.5,10L4.5,10C4.22386,10,4,9.77614,4,9.5L4,8.5C4,8.22386,4.22386,8,4.5,8ZM7,8.5C7,8.22386,7.22386,8,7.5,8L8.5,8C8.77614,8,9,8.22386,9,8.5L9,9.5C9,9.77614,8.77614,10,8.5,10L7.5,10C7.22386,10,7,9.77614,7,9.5L7,8.5ZM10.5,8L11.5,8C11.77614,8,12,8.22386,12,8.5L12,9.5C12,9.77614,11.77614,10,11.5,10L10.5,10C10.22386,10,10,9.77614,10,9.5L10,8.5C10,8.22386,10.22386,8,10.5,8Z" fill="#667085" fill-opacity="1"/></g></g></svg>