<svg xmlns="http://www.w3.org/2000/svg" xmlns:xlink="http://www.w3.org/1999/xlink" fill="none" version="1.1" width="16" height="16" viewBox="0 0 16 16"><defs><clipPath id="master_svg0_12_08427"><rect x="0" y="0" width="16" height="16" rx="0"/></clipPath></defs><g clip-path="url(#master_svg0_12_08427)"><g><path d="M12.500000953674316,16C14.433000953674316,16,16.000000953674316,14.433,16.000000953674316,12.5C16.000000953674316,10.567,14.433000953674316,9.000000953674,12.500000953674316,9C10.567000953674317,9.000000953674,9.000000953674316,10.567,9.000000953674316,12.5C9.000000953674316,14.433,10.567000953674317,16,12.500000953674316,16ZM13.000000953674316,11L13.000000953674316,12L14.000000953674316,12C14.276140953674316,12,14.500000953674316,12.22386,14.500000953674316,12.5C14.500000953674316,12.77614,14.276140953674316,13,14.000000953674316,13L13.000000953674316,13L13.000000953674316,14C13.000000953674316,14.27614,12.776140953674316,14.5,12.500000953674316,14.5C12.223860953674317,14.5,12.000000953674316,14.27614,12.000000953674316,14L12.000000953674316,13L11.000000953674316,13C10.723860953674317,13,10.500000953674316,12.77614,10.500000953674316,12.5C10.500000953674316,12.22386,10.723860953674317,12,11.000000953674316,12L12.000000953674316,12L12.000000953674316,11C12.000000953674316,10.72386,12.223860953674317,10.5,12.500000953674316,10.5C12.776140953674316,10.5,13.000000953674316,10.72386,13.000000953674316,11Z" fill="#667085" fill-opacity="1"/></g><g><path d="M2,1C2,0.447715,2.447715,0,3,0L13,0C13.5523,0,14,0.447715,14,1L14,7.5C14,7.77614,13.7761,8,13.5,8C13.2239,8,13,7.77614,13,7.5L13,1L3,1L3,15L6,15L6,12.5C6,12.2239,6.22386,12,6.5,12L8,12L8,16L3,16C2.447715,16,2,15.5523,2,15L2,1Z" fill="#667085" fill-opacity="1"/></g><g><path d="M4.5,2C4.223857,2,4,2.223858,4,2.5L4,3.5C4,3.77614,4.223857,4,4.5,4L5.5,4C5.77614,4,6,3.77614,6,3.5L6,2.5C6,2.223858,5.77614,2,5.5,2L4.5,2ZM7.5,2C7.22386,2,7,2.223858,7,2.5L7,3.5C7,3.77614,7.22386,4,7.5,4L8.5,4C8.77614,4,9,3.77614,9,3.5L9,2.5C9,2.223858,8.77614,2,8.5,2L7.5,2ZM10.5,2C10.22386,2,10,2.223858,10,2.5L10,3.5C10,3.77614,10.22386,4,10.5,4L11.5,4C11.77614,4,12,3.77614,12,3.5L12,2.5C12,2.223858,11.77614,2,11.5,2L10.5,2ZM4.5,5C4.223857,5,4,5.22386,4,5.5L4,6.5C4,6.77614,4.223857,7,4.5,7L5.5,7C5.77614,7,6,6.77614,6,6.5L6,5.5C6,5.22386,5.77614,5,5.5,5L4.5,5ZM7.5,5C7.22386,5,7,5.22386,7,5.5L7,6.5C7,6.77614,7.22386,7,7.5,7L8.5,7C8.77614,7,9,6.77614,9,6.5L9,5.5C9,5.22386,8.77614,5,8.5,5L7.5,5ZM10.5,5C10.22386,5,10,5.22386,10,5.5L10,6.5C10,6.77614,10.22386,7,10.5,7L11.5,7C11.77614,7,12,6.77614,12,6.5L12,5.5C12,5.22386,11.77614,5,11.5,5L10.5,5ZM4.5,8C4.223857,8,4,8.22386,4,8.5L4,9.5C4,9.77614,4.223857,10,4.5,10L5.5,10C5.77614,10,6,9.77614,6,9.5L6,8.5C6,8.22386,5.77614,8,5.5,8L4.5,8ZM7.5,8C7.22386,8,7,8.22386,7,8.5L7,9.5C7,9.77614,7.22386,10,7.5,10L8.5,10C8.77614,10,9,9.77614,9,9.5L9,8.5C9,8.22386,8.77614,8,8.5,8L7.5,8Z" fill="#667085" fill-opacity="1"/></g></g></svg>