<svg xmlns="http://www.w3.org/2000/svg" xmlns:xlink="http://www.w3.org/1999/xlink" fill="none" version="1.1" width="16" height="16" viewBox="0 0 16 16"><defs><clipPath id="master_svg0_12_08413"><rect x="0" y="0" width="16" height="16" rx="0"/></clipPath></defs><g clip-path="url(#master_svg0_12_08413)"><g><path d="M4,2.5C4,2.223858,4.223857,2,4.5,2L5.5,2C5.77614,2,6,2.223858,6,2.5L6,3.5C6,3.77614,5.77614,4,5.5,4L4.5,4C4.223857,4,4,3.77614,4,3.5L4,2.5ZM7,2.5C7,2.223858,7.22386,2,7.5,2L8.5,2C8.77614,2,9,2.223858,9,2.5L9,3.5C9,3.77614,8.77614,4,8.5,4L7.5,4C7.22386,4,7,3.77614,7,3.5L7,2.5ZM10.5,2C10.22386,2,10,2.223858,10,2.5L10,3.5C10,3.77614,10.22386,4,10.5,4L11.5,4C11.77614,4,12,3.77614,12,3.5L12,2.5C12,2.223858,11.77614,2,11.5,2L10.5,2ZM4,5.5C4,5.22386,4.223857,5,4.5,5L5.5,5C5.77614,5,6,5.22386,6,5.5L6,6.5C6,6.77614,5.77614,7,5.5,7L4.5,7C4.223857,7,4,6.77614,4,6.5L4,5.5ZM7.5,5C7.22386,5,7,5.22386,7,5.5L7,6.5C7,6.77614,7.22386,7,7.5,7L8.5,7C8.77614,7,9,6.77614,9,6.5L9,5.5C9,5.22386,8.77614,5,8.5,5L7.5,5ZM10,5.5C10,5.22386,10.22386,5,10.5,5L11.5,5C11.77614,5,12,5.22386,12,5.5L12,6.5C12,6.77614,11.77614,7,11.5,7L10.5,7C10.22386,7,10,6.77614,10,6.5L10,5.5ZM4.5,8C4.223857,8,4,8.22386,4,8.5L4,9.5C4,9.77614,4.223857,10,4.5,10L5.5,10C5.77614,10,6,9.77614,6,9.5L6,8.5C6,8.22386,5.77614,8,5.5,8L4.5,8ZM7,8.5C7,8.22386,7.22386,8,7.5,8L8.5,8C8.77614,8,9,8.22386,9,8.5L9,9.5C9,9.77614,8.77614,10,8.5,10L7.5,10C7.22386,10,7,9.77614,7,9.5L7,8.5ZM10.5,8C10.22386,8,10,8.22386,10,8.5L10,9.5C10,9.77614,10.22386,10,10.5,10L11.5,10C11.77614,10,12,9.77614,12,9.5L12,8.5C12,8.22386,11.77614,8,11.5,8L10.5,8Z" fill="#667085" fill-opacity="1"/></g><g><path d="M2,1C2,0.447715,2.447715,0,3,0L13,0C13.5523,0,14,0.447715,14,1L14,15C14,15.5523,13.5523,16,13,16L3,16C2.447715,16,2,15.5523,2,15L2,1ZM13,1L3,1L3,15L6,15L6,12.5C6,12.2239,6.22386,12,6.5,12L9.5,12C9.77614,12,10,12.2239,10,12.5L10,15L13,15L13,1Z" fill="#667085" fill-opacity="1"/></g></g></svg>