<svg xmlns="http://www.w3.org/2000/svg" xmlns:xlink="http://www.w3.org/1999/xlink" fill="none" version="1.1" width="16" height="16" viewBox="0 0 16 16"><defs><clipPath id="master_svg0_12_08401"><rect x="0" y="0" width="16" height="16" rx="0"/></clipPath></defs><g clip-path="url(#master_svg0_12_08401)"><g><path d="M0,10.5C-3.29187e-8,10.2239,0.223858,10,0.5,10L15.5,10C15.7761,10,16,10.2239,16,10.5C16,10.7761,15.7761,11,15.5,11L0.5,11C0.223858,11,0,10.7761,0,10.5ZM12,0L4,0C2.89543,0,2,0.89543,2,2L2,9L3,9L3,2C3,1.44772,3.44772,1,4,1L12,1C12.5523,1,13,1.44772,13,2L13,9L14,9L14,2C14,0.89543,13.1046,0,12,0ZM14,12L13,12L13,14C13,14.5523,12.5523,15,12,15L4,15C3.44772,15,3,14.5523,3,14L3,12L2,12L2,14C2,15.1046,2.89543,16,4,16L12,16C13.1046,16,14,15.1046,14,14L14,12Z" fill="#667085" fill-opacity="1"/></g></g></svg>