<svg xmlns="http://www.w3.org/2000/svg" xmlns:xlink="http://www.w3.org/1999/xlink" fill="none" version="1.1" width="16" height="16" viewBox="0 0 16 16"><defs><clipPath id="master_svg0_12_08396"><rect x="0" y="0" width="16" height="16" rx="0"/></clipPath></defs><g clip-path="url(#master_svg0_12_08396)"><g><path d="M7.99999914276123,4.754000186920166C6.2068491427612305,4.753380775920166,4.7528791427612305,6.206850186920166,4.7528791427612305,8.000000186920166C4.7528791427612305,9.793150186920165,6.2068491427612305,11.246620186920165,7.99999914276123,11.246000186920167C9.792279142761231,11.245380186920165,11.244879142761231,9.792280186920166,11.244879142761231,8.000000186920166C11.244879142761231,6.207720186920166,9.792279142761231,4.754618644920166,7.99999914276123,4.754000186920166ZM5.753999142761231,8.000000186920166C5.753999142761231,6.7595701869201665,6.75956914276123,5.754000186920166,7.99999914276123,5.754000186920166C9.24042914276123,5.754000186920166,10.245999142761232,6.7595701869201665,10.245999142761232,8.000000186920166C10.245999142761232,9.240430186920166,9.24042914276123,10.246000186920167,7.99999914276123,10.246000186920167C6.75956914276123,10.246000186920167,5.753999142761231,9.240430186920166,5.753999142761231,8.000000186920166Z" fill="#667085" fill-opacity="1"/></g><g><path d="M9.796,1.343C9.269,-0.447,6.731,-0.447,6.204,1.343L6.11,1.662C5.95285,2.19556,5.34347,2.44805,4.855,2.182L4.563,2.022C2.923,1.13,1.13,2.924,2.023,4.563L2.182,4.855C2.44805,5.34346,2.19556,5.95285,1.662,6.11L1.343,6.204C-0.447,6.731,-0.447,9.269,1.343,9.796L1.662,9.89C2.19556,10.0472,2.44805,10.6565,2.182,11.145L2.022,11.437C1.13,13.077,2.923,14.871,4.563,13.977L4.855,13.818C5.34347,13.552,5.95285,13.8044,6.11,14.338L6.204,14.657C6.731,16.447,9.269,16.447,9.796,14.657L9.89,14.338C10.0472,13.8044,10.6565,13.5519,11.145,13.818L11.437,13.978C13.077,14.871,14.871,13.076,13.977,11.437L13.818,11.145C13.552,10.6565,13.8044,10.0472,14.338,9.89L14.657,9.796C16.447,9.269,16.447,6.731,14.657,6.204L14.338,6.11C13.8044,5.95284,13.552,5.34346,13.818,4.855L13.978,4.563C14.871,2.923,13.076,1.13,11.437,2.023L11.145,2.182C10.6565,2.44805,10.0472,2.19556,9.89,1.662L9.796,1.343ZM7.163,1.626C7.409,0.791,8.591,0.791,8.837,1.626L8.931,1.945C9.26843,3.08976,10.5761,3.63119,11.624,3.06L11.915,2.9C12.679,2.485,13.515,3.32,13.099,4.085L12.94,4.377C12.3697,5.42497,12.9115,6.73192,14.056,7.069L14.374,7.163C15.209,7.409,15.209,8.591,14.374,8.837L14.055,8.931C12.9102,9.26843,12.3688,10.5761,12.94,11.624L13.1,11.915C13.515,12.679,12.68,13.515,11.915,13.099L11.624,12.94C10.5758,12.3689,9.26795,12.9108,8.931,14.056L8.837,14.374C8.591,15.209,7.409,15.209,7.163,14.374L7.069,14.055C6.73144,12.9109,5.42466,12.3696,4.377,12.94L4.085,13.1C3.321,13.515,2.485,12.68,2.901,11.915L3.06,11.624C3.63202,10.5759,3.09042,9.2673,1.945,8.93L1.626,8.836C0.791,8.59,0.791,7.408,1.626,7.162L1.945,7.068C3.08843,6.73032,3.62952,5.42443,3.06,4.377L2.9,4.085C2.485,3.321,3.32,2.485,4.085,2.901L4.377,3.06C5.42466,3.63035,6.73145,3.08909,7.069,1.945L7.163,1.626Z" fill="#667085" fill-opacity="1"/></g></g></svg>