<svg width="62" height="62" viewBox="0 0 62 62" fill="none" xmlns="http://www.w3.org/2000/svg">
<path d="M54.25 23.25V18.0834C54.25 13.8209 50.7625 10.3334 46.5 10.3334H36.1667C34.1775 10.3334 32.3692 11.1084 31 12.3484C29.6308 11.1084 27.8225 10.3334 25.8333 10.3334H15.5C11.2375 10.3334 7.75 13.8209 7.75 18.0834V23.25C3.4875 23.25 0 26.7375 0 31V43.9167C0 48.1792 3.4875 51.6667 7.75 51.6667V56.8334H12.9167V51.6667H49.0833V56.8334H54.25V51.6667C58.5125 51.6667 62 48.1792 62 43.9167V31C62 26.7375 58.5125 23.25 54.25 23.25ZM36.1667 15.5H46.5C47.9208 15.5 49.0833 16.6625 49.0833 18.0834V25.265C47.5075 26.6859 46.5 28.7267 46.5 31V36.1667H33.5833V18.0834C33.5833 16.6625 34.7458 15.5 36.1667 15.5ZM12.9167 18.0834C12.9167 16.6625 14.0792 15.5 15.5 15.5H25.8333C27.2542 15.5 28.4167 16.6625 28.4167 18.0834V36.1667H15.5V31C15.5 28.7267 14.4925 26.6859 12.9167 25.265V18.0834ZM56.8333 43.9167C56.8333 45.3375 55.6708 46.5 54.25 46.5H7.75C6.32917 46.5 5.16667 45.3375 5.16667 43.9167V31C5.16667 29.5792 6.32917 28.4167 7.75 28.4167C9.17083 28.4167 10.3333 29.5792 10.3333 31V41.3334H51.6667V31C51.6667 29.5792 52.8292 28.4167 54.25 28.4167C55.6708 28.4167 56.8333 29.5792 56.8333 31V43.9167Z" fill="#64748B"/>
</svg>
