<svg xmlns="http://www.w3.org/2000/svg" xmlns:xlink="http://www.w3.org/1999/xlink" fill="none" version="1.1" width="16" height="16" viewBox="0 0 16 16"><defs><clipPath id="master_svg0_12_08433"><rect x="0" y="0" width="16" height="16" rx="0"/></clipPath></defs><g clip-path="url(#master_svg0_12_08433)"><g><path d="M5.5,5.5C5.776143,5.5,6,5.723857,6,6L6,12C6,12.27614,5.776143,12.5,5.5,12.5C5.223857,12.5,5,12.27614,5,12L5,6C5,5.723857,5.223857,5.5,5.5,5.5ZM8,5.5C8.27614,5.5,8.5,5.723857,8.5,6L8.5,12C8.5,12.27614,8.27614,12.5,8,12.5C7.72386,12.5,7.5,12.27614,7.5,12L7.5,6C7.5,5.723857,7.72386,5.5,8,5.5ZM11,6C11,5.723857,10.77614,5.5,10.5,5.5C10.22386,5.5,10,5.723857,10,6L10,12C10,12.27614,10.22386,12.5,10.5,12.5C10.77614,12.5,11,12.27614,11,12L11,6Z" fill="#667085" fill-opacity="1"/></g><g><path d="M14.5,3C14.5,3.55228,14.0523,4,13.5,4L13,4L13,13C13,14.1046,12.1046,15,11,15L5,15C3.89543,15,3,14.1046,3,13L3,4L2.5,4C1.947715,4,1.5,3.55228,1.5,3L1.5,2C1.499999880791,1.44772,1.947715,1,2.5,1L6,1C6,0.447715,6.44772,0,7,0L9,0C9.55229,0,10,0.447715,10,1L13.5,1C14.0523,1,14.5,1.44772,14.5,2L14.5,3ZM4.118,4L4,4.059L4,13C4,13.5523,4.44772,14,5,14L11,14C11.5523,14,12,13.5523,12,13L12,4.059L11.882,4L4.118,4ZM2.5,3L13.5,3L13.5,2L2.5,2L2.5,3Z" fill="#667085" fill-opacity="1"/></g></g></svg>