<svg xmlns="http://www.w3.org/2000/svg" xmlns:xlink="http://www.w3.org/1999/xlink" fill="none" version="1.1" width="16" height="16" viewBox="0 0 16 16"><defs><clipPath id="master_svg0_12_08392"><rect x="0" y="0" width="16" height="16" rx="0"/></clipPath></defs><g clip-path="url(#master_svg0_12_08392)"><g><path d="M15,14Q16,14,16,13C16,12,15,9,11,9C7,9,6,12,6,13Q6,14,7,14L15,14ZM7.022,13L7,12.996C7.001,12.732,7.167,11.966,7.76,11.276C8.312,10.629,9.282,10,11,10C12.717,10,13.687,10.63,14.24,11.276C14.833,11.966,14.998,12.733,15,12.996L14.992,12.998L14.978,13L7.022,13ZM11,7C12.1046,7,13,6.10457,13,5C13,3.89543,12.1046,3,11,3C9.89543,3,9,3.89543,9,5C9,6.10457,9.89543,7,11,7ZM14,5C14,6.65685,12.6569,8,11,8C9.34315,8,8,6.65685,8,5C8,3.34315,9.34315,2,11,2C12.6569,2,14,3.34315,14,5ZM6.936,9.280000000000001C6.53576,9.154910000000001,6.12351,9.07212,5.706,9.033000000000001C5.47137,9.01012,5.23574,8.99911,5,9C1,9,0,12,0,13Q0,14,1,14L5.216,14C5.06782,13.6878,4.9939,13.3455,5,13C5,11.99,5.377,10.958,6.09,10.096C6.333,9.802,6.616,9.527000000000001,6.936,9.280000000000001ZM4.92,10C4.32852,10.88945,4.00884,11.93188,4,13L1,13C1,12.74,1.164,11.97,1.76,11.276C2.305,10.64,3.252,10.02,4.92,10.001L4.92,10ZM1.5,5.5C1.5,3.84315,2.84315,2.5,4.5,2.5C6.15685,2.5,7.5,3.84315,7.5,5.5C7.5,7.15685,6.15685,8.5,4.5,8.5C2.84315,8.5,1.5,7.15685,1.5,5.5ZM4.5,3.5C3.39543,3.5,2.5,4.39543,2.5,5.5C2.5,6.60457,3.39543,7.5,4.5,7.5C5.60457,7.5,6.5,6.60457,6.5,5.5C6.5,4.39543,5.60457,3.5,4.5,3.5Z" fill="#667085" fill-opacity="1"/></g></g></svg>