<svg width="180" height="35" viewBox="0 0 180 35" fill="none" xmlns="http://www.w3.org/2000/svg">
<path d="M19.1816 10.022L36.571 14.5352V26.5485L19.1816 25.0883V20.1105L34.5135 22.3007V18.3184L19.1816 14.9335V10.022Z" fill="#FF5C1D"/>
<path d="M17.3894 0L0 6.23893V18.3186L17.3894 15V10.0221L2.05752 14.0044V10.0221L17.3894 4.9115V0Z" fill="#FF5C1D"/>
<path d="M17.3894 19.8452L0 22.5001V34.3142H17.3894V29.9337L2.05752 30.2656V26.2833L17.3894 24.7567V19.8452Z" fill="#FF5C1D"/>
<path d="M36.571 34.3142H19.1152V30.0664L36.571 30.7301V34.3142Z" fill="#FF5C1D"/>
<path d="M36.571 9.95575L19.1152 4.51327V0L36.571 6.17256V9.95575Z" fill="#FF5C1D"/>
<path d="M52.5001 7.23434C53.7612 7.23434 54.8895 7.36709 55.8851 7.69894C56.947 8.0308 57.8098 8.4954 58.5399 9.09275C59.27 9.69009 59.801 10.4866 60.1992 11.3494C60.5974 12.2786 60.7966 13.2742 60.7966 14.4689C60.7966 15.3317 60.6638 16.2609 60.3983 17.1237C60.1328 17.9866 59.6682 18.783 59.0709 19.5131C58.4736 20.2432 57.6771 20.7742 56.6815 21.2388C55.6859 21.7034 54.4249 21.9025 52.9647 21.9025H49.7789V29.7343H46.1284V7.16797H52.5001V7.23434ZM53.0311 18.4512C53.8275 18.4512 54.4913 18.3184 55.0222 18.0529C55.5532 17.7874 55.9514 17.4556 56.2833 17.0574C56.6151 16.6591 56.8143 16.2609 56.947 15.7963C57.0797 15.3317 57.1461 14.9335 57.1461 14.5352C57.1461 14.137 57.0797 13.7388 56.947 13.3405C56.8143 12.8759 56.6151 12.4777 56.2833 12.0795C55.9514 11.6812 55.5532 11.3494 55.0886 11.0839C54.5576 10.8184 53.8939 10.6857 53.1638 10.6857H49.7789V18.4512H53.0311ZM56.947 20.6414L62.7213 29.8007H58.5399L52.6328 20.7078L56.947 20.6414Z" fill="#1C181C"/>
<path d="M69.5577 30.1328C68.0311 30.1328 66.7037 29.801 65.5754 29.2036C64.4471 28.6063 63.6506 27.7434 63.0533 26.7479C62.4559 25.6859 62.1904 24.4912 62.1904 23.0974C62.1904 21.77 62.5223 20.6417 63.186 19.5133C63.8497 18.4514 64.7126 17.5886 65.8409 16.9912C66.9692 16.3939 68.2303 16.062 69.5577 16.062C71.3497 16.062 72.8099 16.593 74.0046 17.6549C75.1993 18.7169 75.9294 20.1771 76.3276 22.1018L65.7745 25.6859L65.0444 23.6948L73.3409 20.7744L72.6108 21.1726C72.4117 20.5753 72.0134 19.9779 71.5488 19.5133C71.0179 19.0487 70.2878 18.7832 69.4249 18.7832C68.6949 18.7832 68.0311 18.9824 67.5002 19.3142C66.9692 19.6461 66.5046 20.1771 66.1727 20.7744C65.8409 21.3717 65.7081 22.1018 65.7081 22.8983C65.7081 23.7611 65.9072 24.4912 66.2391 25.1549C66.571 25.8186 67.0356 26.2833 67.6993 26.6151C68.2966 26.947 68.9603 27.1461 69.7568 27.1461C70.2878 27.1461 70.8188 27.0797 71.2834 26.8806C71.748 26.6815 72.2126 26.416 72.6772 26.1505L74.2701 28.739C73.6064 29.2036 72.8099 29.5355 72.0134 29.8009C71.0842 30.0001 70.2878 30.1328 69.5577 30.1328Z" fill="#1C181C"/>
<path d="M81.969 30.0664C80.9734 30.0664 80.0442 29.8673 79.115 29.5355C78.1858 29.2036 77.4557 28.6726 76.8584 28.0089L78.3186 26.0841C78.9159 26.6151 79.4469 27.0797 80.0442 27.2788C80.6416 27.5443 81.1726 27.6771 81.7035 27.6771C82.1018 27.6771 82.4336 27.6107 82.7655 27.5443C83.0973 27.4779 83.3628 27.2788 83.5619 27.0797C83.7611 26.8806 83.8274 26.6151 83.8274 26.2169C83.8274 25.8187 83.6947 25.4868 83.3628 25.2213C83.0973 24.9558 82.6991 24.7567 82.2345 24.624C81.7699 24.4912 81.3053 24.2921 80.7743 24.1594C79.646 23.7611 78.8495 23.2965 78.2522 22.5664C77.7212 21.9027 77.3894 21.1063 77.3894 20.2434C77.3894 19.5797 77.5885 18.916 77.9203 18.2523C78.2522 17.5886 78.7832 17.124 79.5133 16.6594C80.2434 16.2611 81.1726 16.062 82.2345 16.062C83.2301 16.062 84.0929 16.1948 84.823 16.3939C85.5531 16.593 86.2168 16.9912 86.8805 17.4558L85.5531 19.5797C85.1549 19.1815 84.7566 18.916 84.2257 18.7169C83.6947 18.5178 83.2301 18.385 82.8318 18.385C82.4336 18.385 82.1018 18.385 81.8363 18.5178C81.5708 18.6505 81.3053 18.7833 81.1062 18.9824C80.9071 19.1815 80.8407 19.447 80.8407 19.7125C80.8407 20.1107 80.9734 20.4425 81.3053 20.708C81.6372 20.9735 81.969 21.1726 82.5 21.3054C82.9646 21.4381 83.4292 21.6372 83.9602 21.77C84.6239 21.9691 85.1549 22.2346 85.6195 22.5664C86.0841 22.8983 86.4823 23.2965 86.8141 23.7611C87.0796 24.2257 87.2787 24.8231 87.2787 25.4868C87.2787 26.2832 87.0796 27.0133 86.6814 27.6771C86.2832 28.3408 85.6858 28.9381 84.8894 29.3363C84.1593 29.8673 83.1637 30.0664 81.969 30.0664Z" fill="#1C181C"/>
<path d="M89.4028 16.6592H92.8542V29.8008H89.4028V16.6592Z" fill="#1C181C"/>
<path d="M100.487 30.0664C99.491 30.0664 98.5618 29.8673 97.6326 29.5355C96.7034 29.2036 95.9733 28.6726 95.376 28.0089L96.8362 26.0841C97.4335 26.6151 97.9645 27.0797 98.5618 27.2788C99.1592 27.5443 99.6901 27.6771 100.221 27.6771C100.619 27.6771 100.951 27.6107 101.283 27.5443C101.615 27.4779 101.88 27.2788 102.08 27.0797C102.279 26.8806 102.345 26.6151 102.345 26.2169C102.345 25.8187 102.212 25.4868 101.88 25.2213C101.615 24.9558 101.217 24.7567 100.752 24.624C100.287 24.4912 99.8229 24.2921 99.2919 24.1594C98.1636 23.7611 97.3671 23.2965 96.7698 22.5664C96.2388 21.9027 95.907 21.1063 95.907 20.2434C95.907 19.5797 96.1061 18.916 96.4379 18.2523C96.7698 17.5886 97.3008 17.124 98.0308 16.6594C98.7609 16.2611 99.6901 16.062 100.752 16.062C101.748 16.062 102.61 16.1948 103.341 16.3939C104.071 16.593 104.734 16.9912 105.398 17.4558L104.071 19.5797C103.672 19.1815 103.274 18.916 102.743 18.7169C102.212 18.5178 101.748 18.385 101.349 18.385C100.951 18.385 100.619 18.385 100.354 18.5178C100.088 18.6505 99.8229 18.7833 99.6238 18.9824C99.4247 19.1815 99.3583 19.447 99.3583 19.7125C99.3583 20.1107 99.491 20.4425 99.8229 20.708C100.155 20.9735 100.487 21.1726 101.018 21.3054C101.482 21.4381 101.947 21.6372 102.478 21.77C103.141 21.9691 103.672 22.2346 104.137 22.5664C104.602 22.8983 105 23.2965 105.332 23.7611C105.597 24.2257 105.796 24.8231 105.796 25.4868C105.796 26.2832 105.597 27.0133 105.199 27.6771C104.801 28.3408 104.203 28.9381 103.407 29.3363C102.677 29.8673 101.681 30.0664 100.487 30.0664Z" fill="#1C181C"/>
<path d="M113.827 30.1328C112.699 30.1328 111.637 29.8673 110.641 29.27C109.712 28.739 108.916 27.9425 108.318 26.8806C107.721 25.8186 107.456 24.624 107.456 23.1638C107.456 21.7036 107.787 20.4425 108.385 19.3806C109.048 18.3186 109.845 17.5222 110.907 16.9248C111.969 16.3275 113.097 16.062 114.292 16.062C115.42 16.062 116.416 16.2611 117.279 16.7257C118.141 17.1903 118.805 17.7877 119.402 18.5178L119.071 19.447V16.3939H122.522V34.3142H119.071V26.8142L119.137 28.1417C118.606 28.739 117.876 29.27 116.947 29.6018C116.084 29.9337 115.022 30.1328 113.827 30.1328ZM115.022 27.4116C115.686 27.4116 116.349 27.2788 116.88 27.0797C117.478 26.8142 117.942 26.4824 118.274 26.0841C118.672 25.6195 118.938 25.1549 119.071 24.5576V21.9027C118.871 21.3054 118.606 20.8408 118.208 20.3762C117.81 19.9779 117.345 19.6461 116.814 19.3806C116.283 19.1815 115.686 19.0487 114.956 19.0487C114.225 19.0487 113.562 19.2479 112.964 19.5797C112.367 19.9116 111.836 20.4425 111.504 21.1063C111.172 21.77 110.973 22.5001 110.973 23.2965C110.973 24.093 111.172 24.7567 111.504 25.4204C111.836 26.0841 112.367 26.5487 112.964 26.8806C113.628 27.2125 114.292 27.4116 115.022 27.4116Z" fill="#1C181C"/>
<path d="M129.093 30.3981C127.898 30.3981 126.903 29.9999 126.106 29.2698C125.31 28.5397 124.912 27.6105 124.845 26.4158V16.6592H128.297V25.1548C128.363 25.8185 128.496 26.3494 128.828 26.7477C129.159 27.1459 129.69 27.345 130.42 27.345C131.084 27.345 131.681 27.1459 132.212 26.6813C132.743 26.2831 133.142 25.6857 133.474 24.9556C133.805 24.2256 133.938 23.3627 133.938 22.4335V16.6592H137.389V29.8008H134.27L134.004 26.9468L134.071 27.4114C133.805 28.0087 133.407 28.5397 132.943 28.9379C132.478 29.4025 131.881 29.7344 131.217 29.9999C130.62 30.2654 129.889 30.3981 129.093 30.3981Z" fill="#1C181C"/>
<path d="M146.018 30.1328C144.823 30.1328 143.695 29.8673 142.699 29.3363C141.703 28.8054 140.907 28.0753 140.31 27.0133C139.712 26.0178 139.447 24.6903 139.447 23.2302C139.447 21.77 139.779 20.4425 140.376 19.3806C140.973 18.3186 141.77 17.5222 142.765 16.9248C143.761 16.3275 144.889 16.062 146.018 16.062C147.279 16.062 148.274 16.3275 149.071 16.7921C149.867 17.3231 150.464 17.854 150.863 18.5178L150.664 18.9824L150.995 16.593H154.181V29.7346H150.73V26.5487L151.062 27.4116C150.995 27.5443 150.863 27.7434 150.597 28.0089C150.332 28.2744 150 28.6063 149.535 28.9381C149.071 29.27 148.606 29.5355 148.009 29.8009C147.478 30.0664 146.814 30.1328 146.018 30.1328ZM146.947 27.2788C147.61 27.2788 148.141 27.1461 148.672 26.947C149.203 26.7479 149.602 26.416 150 26.0178C150.332 25.6195 150.597 25.0886 150.796 24.5576V21.7036C150.664 21.1726 150.332 20.708 150 20.3098C149.602 19.9116 149.203 19.5797 148.672 19.3806C148.141 19.1815 147.544 19.0487 146.947 19.0487C146.217 19.0487 145.553 19.2479 144.956 19.5797C144.358 19.9116 143.894 20.4425 143.495 21.0399C143.164 21.6372 142.964 22.3673 142.964 23.1638C142.964 23.9602 143.164 24.6903 143.495 25.2877C143.894 25.9514 144.358 26.416 144.956 26.8142C145.619 27.0797 146.283 27.2788 146.947 27.2788Z" fill="#1C181C"/>
<path d="M159.69 16.6594L160.022 20.3762L159.889 19.8452C160.221 19.0487 160.752 18.385 161.416 17.854C162.08 17.3231 162.743 16.8585 163.407 16.5266C164.071 16.1948 164.668 16.062 165.066 16.062L164.934 19.5133C163.938 19.447 163.075 19.5797 162.345 20.0443C161.615 20.5089 161.018 21.0399 160.619 21.77C160.221 22.5001 160.022 23.2965 160.022 24.093V29.7346H156.571V16.593H159.69V16.6594Z" fill="#1C181C"/>
<path d="M173.23 30.1328C171.704 30.1328 170.376 29.801 169.248 29.2036C168.119 28.6063 167.323 27.7434 166.726 26.7479C166.128 25.6859 165.863 24.4912 165.863 23.0974C165.863 21.77 166.195 20.6417 166.858 19.5133C167.522 18.4514 168.385 17.5886 169.513 16.9912C170.642 16.3939 171.903 16.062 173.23 16.062C175.022 16.062 176.482 16.593 177.677 17.6549C178.872 18.7169 179.602 20.1771 180 22.1018L169.447 25.6859L168.65 23.7611L176.947 20.8408L176.217 21.239C176.018 20.6417 175.619 20.0443 175.155 19.5797C174.624 19.1151 173.894 18.8496 173.031 18.8496C172.301 18.8496 171.637 19.0487 171.106 19.3806C170.575 19.7125 170.111 20.2434 169.779 20.8408C169.447 21.4381 169.314 22.1682 169.314 22.9647C169.314 23.8275 169.513 24.5576 169.845 25.2213C170.177 25.885 170.642 26.3496 171.305 26.6815C171.903 27.0133 172.566 27.2125 173.363 27.2125C173.894 27.2125 174.425 27.1461 174.889 26.947C175.354 26.7479 175.819 26.4824 176.283 26.2169L177.876 28.8054C177.212 29.27 176.416 29.6018 175.619 29.8673C174.757 30.0001 174.027 30.1328 173.23 30.1328Z" fill="#1C181C"/>
<path d="M92.8542 10.6196H89.4028V14.071H92.8542V10.6196Z" fill="#FF5C1D"/>
</svg>
