<svg width="65" height="65" viewBox="0 0 65 65" fill="none" xmlns="http://www.w3.org/2000/svg">
<path d="M59.5979 28.1666H58.5146V6.71669C58.5146 4.93533 57.8069 3.22692 56.5473 1.96731C55.2877 0.70769 53.5793 4.55225e-05 51.7979 4.55225e-05H46.3813C45.6976 -0.00282108 45.0201 0.129724 44.3879 0.390032C43.7558 0.650341 43.1814 1.03326 42.6979 1.51669C42.2145 2.00013 41.8316 2.57451 41.5713 3.2067C41.311 3.83888 41.1784 4.51636 41.1813 5.20003V6.80336C39.3256 7.28249 37.6811 8.36321 36.505 9.87646C35.3289 11.3897 34.6875 13.2501 34.6813 15.1667V17.3333C34.6813 17.908 34.9096 18.4591 35.3159 18.8654C35.7222 19.2717 36.2733 19.5 36.848 19.5H49.8479C50.4226 19.5 50.9737 19.2717 51.38 18.8654C51.7863 18.4591 52.0146 17.908 52.0146 17.3333V15.1667C52.0084 13.2501 51.3671 11.3897 50.1909 9.87646C49.0148 8.36321 47.3703 7.28249 45.5146 6.80336V5.20003C45.5146 4.97018 45.6059 4.74974 45.7685 4.58721C45.931 4.42468 46.1514 4.33337 46.3813 4.33337H51.7979C52.4283 4.33902 53.0312 4.59194 53.4769 5.03768C53.9227 5.48342 54.1756 6.08635 54.1813 6.71669V28.1666H5.43139C4.2935 28.159 3.18232 28.5113 2.25673 29.1732C1.33115 29.8351 0.638555 30.7728 0.277994 31.852C-0.0825681 32.9313 -0.0926361 34.097 0.249229 35.1823C0.591094 36.2677 1.26739 37.2171 2.1814 37.8949V44.3949C2.19093 47.3326 3.10773 50.1956 4.80642 52.5924C6.5051 54.9892 8.90273 56.8027 11.6714 57.7849L9.04972 61.6415C8.73613 62.1192 8.62394 62.7014 8.73756 63.2614C8.85118 63.8214 9.18142 64.3139 9.65638 64.6315C10.0053 64.8759 10.4221 65.0047 10.848 64.9999C11.2049 64.998 11.5558 64.9081 11.8695 64.738C12.1832 64.5679 12.4501 64.3229 12.6464 64.0249L16.3514 58.4999H48.6779L52.3829 64.0249C52.5792 64.3229 52.8461 64.5679 53.1598 64.738C53.4735 64.9081 53.8244 64.998 54.1813 64.9999C54.6072 65.0047 55.024 64.8759 55.3729 64.6315C55.8479 64.3139 56.1781 63.8214 56.2917 63.2614C56.4054 62.7014 56.2932 62.1192 55.9796 61.6415L53.3579 57.6766C56.1266 56.6944 58.5242 54.8809 60.2229 52.4841C61.9216 50.0873 62.8384 47.2243 62.8479 44.2866V37.7866C63.7181 37.0961 64.3539 36.1537 64.6684 35.0883C64.983 34.0229 64.961 32.8863 64.6054 31.8339C64.2499 30.7814 63.5781 29.8644 62.6819 29.208C61.7856 28.5517 60.7086 28.188 59.5979 28.1666ZM47.6813 15.1667H39.0146C39.0146 14.0174 39.4712 12.9152 40.2838 12.1025C41.0965 11.2899 42.1987 10.8333 43.348 10.8333C44.4972 10.8333 45.5994 11.2899 46.4121 12.1025C47.2247 12.9152 47.6813 14.0174 47.6813 15.1667ZM5.43139 32.5H59.5979C59.8852 32.5 60.1608 32.6141 60.3639 32.8173C60.5671 33.0204 60.6812 33.296 60.6812 33.5833C60.6812 33.8706 60.5671 34.1462 60.3639 34.3493C60.1608 34.5525 59.8852 34.6666 59.5979 34.6666H5.43139C5.14407 34.6666 4.86853 34.5525 4.66536 34.3493C4.4622 34.1462 4.34806 33.8706 4.34806 33.5833C4.34806 33.296 4.4622 33.0204 4.66536 32.8173C4.86853 32.6141 5.14407 32.5 5.43139 32.5ZM58.5146 44.2866C58.5089 46.9052 57.4661 49.4149 55.6145 51.2665C53.7629 53.1181 51.2532 54.1608 48.6346 54.1666H16.3947C13.7761 54.1608 11.2664 53.1181 9.41482 51.2665C7.56321 49.4149 6.52045 46.9052 6.51472 44.2866V38.9999H58.5146V44.2866Z" fill="#FF5C1D"/>
</svg>
