<svg width="18" height="18" viewBox="0 0 18 18" fill="none" xmlns="http://www.w3.org/2000/svg">
<g clip-path="url(#clip0_1608_5923)">
<path d="M14.7717 18H15.3587C15.4565 18 15.6522 17.9022 15.6522 17.7065V16.1413L15.75 16.0435C16.337 15.5543 16.8261 14.4783 16.8261 13.5978V10.3696H17.7065C17.8043 10.3696 18 10.2717 18 10.0761V9.58696C18 9.48913 17.8043 9.29348 17.7065 9.29348H2.34783V2.25C2.34783 1.66304 2.83696 1.17391 3.42391 1.17391C3.71739 1.17391 4.01087 1.27174 4.20652 1.46739L4.79348 2.05435L4.59783 2.25C4.5 2.54348 4.40217 3.03261 4.40217 3.32609C4.40217 3.91304 4.79348 4.69565 5.18478 5.08696L5.38043 5.28261L5.08696 5.57609C5.08696 5.57609 4.98913 5.67391 4.98913 5.77174C4.98913 5.86957 4.98913 5.86957 5.08696 5.96739L5.57609 6.45652C5.57609 6.45652 5.67391 6.55435 5.77174 6.55435C5.86957 6.55435 5.96739 6.55435 5.96739 6.45652L9.78261 2.44565C9.78261 2.44565 9.88044 2.34783 9.88044 2.25C9.88044 2.15217 9.88043 2.05435 9.78261 2.05435L9.3913 1.66304L9.19565 1.56522C9.19565 1.56522 9.09783 1.56522 9 1.66304L8.80435 1.8587L8.6087 1.66304C8.21739 1.27174 7.43478 0.880435 6.84783 0.880435C6.55435 0.880435 5.96739 0.978261 5.77174 1.17391L5.57609 1.27174L4.98913 0.684783C4.59783 0.293478 3.81522 0 3.32609 0C2.15217 0 1.17391 0.978261 1.17391 2.25V9.29348H0.293478C0.0978261 9.29348 0 9.48913 0 9.58696V10.1739C0 10.3696 0.0978261 10.4674 0.293478 10.4674H1.17391V13.6957C1.17391 14.4783 1.66304 15.5543 2.25 16.0435L2.34783 16.1413V17.7065C2.34783 17.9022 2.44565 18 2.6413 18H3.22826C3.32609 18 3.52174 17.9022 3.52174 17.7065V16.7283L3.91304 16.8261C4.01087 16.8261 4.30435 16.8261 4.40217 16.8261H13.6957C13.7935 16.8261 14.087 16.8261 14.1848 16.8261L14.5761 16.7283V17.7065C14.4783 17.9022 14.6739 18 14.7717 18ZM6.84783 2.05435C7.1413 2.05435 7.53261 2.25 7.82609 2.54348L8.02174 2.73913L6.16304 4.5L5.96739 4.30435C5.67391 4.01087 5.47826 3.71739 5.47826 3.32609C5.47826 2.6413 6.06522 2.05435 6.84783 2.05435ZM13.6957 15.6522H4.40217C3.22826 15.6522 2.34783 14.7717 2.34783 13.5978V10.3696H15.6522V13.6957C15.6522 14.7717 14.7717 15.6522 13.6957 15.6522Z" fill="#5C5C5E"/>
</g>
<defs>
<clipPath id="clip0_1608_5923">
<rect width="18" height="18" fill="white"/>
</clipPath>
</defs>
</svg>
