<svg width="16" height="16" viewBox="0 0 16 16" fill="none" xmlns="http://www.w3.org/2000/svg">
<rect width="16" height="16" rx="8" fill="black" fill-opacity="0.6"/>
<path d="M10.3593 12.5469H6.01914C5.7651 12.5463 5.52163 12.4451 5.342 12.2655C5.16236 12.0858 5.06117 11.8424 5.06055 11.5883V4.828C5.06055 4.73476 5.09759 4.64534 5.16352 4.57941C5.22945 4.51348 5.31887 4.47644 5.41211 4.47644H10.9668C11.06 4.47644 11.1495 4.51348 11.2154 4.57941C11.2813 4.64534 11.3184 4.73476 11.3184 4.828V11.5883C11.3177 11.8424 11.2165 12.086 11.0367 12.2656C10.857 12.4453 10.6134 12.5464 10.3593 12.5469ZM5.76367 5.17957V11.5883C5.76373 11.6561 5.79067 11.721 5.83857 11.7689C5.88646 11.8168 5.9514 11.8437 6.01914 11.8438H10.3593C10.4271 11.8438 10.4921 11.8169 10.54 11.769C10.588 11.7211 10.6149 11.6561 10.615 11.5883V5.17957H5.76367Z" fill="white"/>
<path d="M9.66602 5.17958H6.71289C6.61965 5.17958 6.53023 5.14254 6.4643 5.0766C6.39837 5.01067 6.36133 4.92125 6.36133 4.82801V4.18911C6.3617 3.91114 6.4723 3.64466 6.66888 3.44813C6.86546 3.2516 7.13195 3.14106 7.40992 3.14075H8.96898C9.24695 3.14106 9.51345 3.2516 9.71003 3.44813C9.9066 3.64466 10.0172 3.91114 10.0176 4.18911V4.82801C10.0176 4.92125 9.98054 5.01067 9.91461 5.0766C9.84868 5.14254 9.75926 5.17958 9.66602 5.17958ZM7.06445 4.47645H9.31445V4.18911C9.31433 4.09754 9.27788 4.00977 9.21312 3.94504C9.14835 3.88032 9.06055 3.84393 8.96898 3.84387H7.40992C7.3184 3.844 7.23066 3.88041 7.16594 3.94513C7.10122 4.00984 7.06481 4.09758 7.06469 4.18911L7.06445 4.47645Z" fill="white"/>
<path d="M8.18945 11.2012C8.09621 11.2012 8.00679 11.1641 7.94086 11.0982C7.87493 11.0323 7.83789 10.9429 7.83789 10.8496V6.17407C7.83789 6.08083 7.87493 5.99141 7.94086 5.92548C8.00679 5.85955 8.09621 5.82251 8.18945 5.82251C8.28269 5.82251 8.37211 5.85955 8.43805 5.92548C8.50398 5.99141 8.54102 6.08083 8.54102 6.17407V10.8496C8.54102 10.9429 8.50398 11.0323 8.43805 11.0982C8.37211 11.1641 8.28269 11.2012 8.18945 11.2012Z" fill="white"/>
<path d="M6.91992 11.2012C6.82668 11.2012 6.73726 11.1641 6.67133 11.0982C6.6054 11.0323 6.56836 10.9429 6.56836 10.8496V6.17407C6.56836 6.08083 6.6054 5.99141 6.67133 5.92548C6.73726 5.85955 6.82668 5.82251 6.91992 5.82251C7.01316 5.82251 7.10258 5.85955 7.16851 5.92548C7.23445 5.99141 7.27148 6.08083 7.27148 6.17407V10.8496C7.27148 10.9429 7.23445 11.0323 7.16851 11.0982C7.10258 11.1641 7.01316 11.2012 6.91992 11.2012Z" fill="white"/>
<path d="M9.45898 11.2012C9.36574 11.2012 9.27632 11.1641 9.21039 11.0982C9.14446 11.0323 9.10742 10.9429 9.10742 10.8496V6.17407C9.10742 6.08083 9.14446 5.99141 9.21039 5.92548C9.27632 5.85955 9.36574 5.82251 9.45898 5.82251C9.55222 5.82251 9.64165 5.85955 9.70758 5.92548C9.77351 5.99141 9.81055 6.08083 9.81055 6.17407V10.8496C9.81055 10.9429 9.77351 11.0323 9.70758 11.0982C9.64165 11.1641 9.55222 11.2012 9.45898 11.2012Z" fill="white"/>
<path d="M11.5115 5.17957H4.86719C4.77395 5.17957 4.68453 5.14253 4.6186 5.0766C4.55266 5.01066 4.51562 4.92124 4.51562 4.828C4.51562 4.73476 4.55266 4.64534 4.6186 4.57941C4.68453 4.51348 4.77395 4.47644 4.86719 4.47644H11.5115C11.6047 4.47644 11.6941 4.51348 11.7601 4.57941C11.826 4.64534 11.863 4.73476 11.863 4.828C11.863 4.92124 11.826 5.01066 11.7601 5.0766C11.6941 5.14253 11.6047 5.17957 11.5115 5.17957Z" fill="white"/>
</svg>
