<svg width="20" height="20" viewBox="0 0 20 20" fill="none" xmlns="http://www.w3.org/2000/svg">
<path d="M3.02539 16.3545L4.16708 11.7569L11.1715 4.75244L14.6274 8.20837L7.623 15.2128L3.02539 16.3545ZM4.96935 12.1889L4.22879 15.1511L7.19102 14.4105L13.424 8.17751L11.2024 5.95584L4.96935 12.1889Z" fill="#64748B"/>
<path d="M6.88395 14.9359C6.57539 13.7325 5.64969 12.8068 4.44629 12.4983L4.66229 11.6343C6.17426 12.0046 7.3468 13.1771 7.71708 14.6891L6.88395 14.9359Z" fill="#64748B"/>
<path d="M6.789 13.2381L6.17188 12.5901L12.3123 6.44971L12.9294 7.06684L6.789 13.2381Z" fill="#64748B"/>
<path d="M4 15.3577L5.35768 15.0183C5.23426 14.5246 4.83312 14.1234 4.33942 14L4 15.3577Z" fill="#64748B"/>
<path d="M14.9667 7.86937L11.5107 4.41344L12.8993 3.0249L13.1153 3.05576C14.7815 3.27176 16.1084 4.59858 16.3244 6.26483L16.3552 6.48083L14.9667 7.86937ZM12.7759 4.41344L14.9975 6.63511L15.4295 6.20313C15.1827 5.09229 14.3187 4.22831 13.2078 3.98146L12.7759 4.41344Z" fill="#64748B"/>
</svg>
