<svg width="16" height="16" viewBox="0 0 16 16" fill="none" xmlns="http://www.w3.org/2000/svg">
<rect width="16" height="16" rx="8" fill="black" fill-opacity="0.6"/>
<path d="M4.02539 12.1251L4.71914 9.33133L8.97539 5.07507L11.0754 7.17508L6.81914 11.4313L4.02539 12.1251ZM5.20664 9.59382L4.75664 11.3938L6.55664 10.9438L10.3441 7.15632L8.99414 5.80632L5.20664 9.59382Z" fill="white"/>
<path d="M6.36895 11.2625C6.18145 10.5312 5.61895 9.96872 4.8877 9.78122L5.01895 9.25623C5.9377 9.48123 6.6502 10.1937 6.8752 11.1125L6.36895 11.2625Z" fill="white"/>
<path d="M6.3125 10.2313L5.9375 9.83757L9.66875 6.10632L10.0437 6.48132L6.3125 10.2313Z" fill="white"/>
<path d="M4.40039 11.75L5.22539 11.5438C5.15039 11.2438 4.90664 11 4.60664 10.925L4.40039 11.75Z" fill="white"/>
<path d="M11.2816 6.96878L9.18164 4.86877L10.0254 4.02502L10.1566 4.04378C11.1691 4.17503 11.9754 4.98127 12.1066 5.99377L12.1254 6.12503L11.2816 6.96878ZM9.95039 4.86877L11.3004 6.21878L11.5629 5.95628C11.4129 5.28128 10.8879 4.75628 10.2129 4.60628L9.95039 4.86877Z" fill="white"/>
</svg>
