<svg width="16" height="16" viewBox="0 0 16 16" fill="none" xmlns="http://www.w3.org/2000/svg">
<path d="M16 8C16 12.4183 12.4183 16 8 16C3.58172 16 0 12.4183 0 8C0 3.58172 3.58172 0 8 0C12.4183 0 16 3.58172 16 8ZM1.22506 8C1.22506 11.7417 4.2583 14.7749 8 14.7749C11.7417 14.7749 14.7749 11.7417 14.7749 8C14.7749 4.2583 11.7417 1.22506 8 1.22506C4.2583 1.22506 1.22506 4.2583 1.22506 8Z" fill="#475569"/>
<path d="M9.36089 11.35C9.36089 12.1005 8.7503 12.7111 7.99978 12.7111C7.24927 12.7111 6.63867 12.1005 6.63867 11.35C6.63867 10.5995 7.24927 9.98889 7.99978 9.98889C8.7503 9.98889 9.36089 10.5995 9.36089 11.35ZM6.79622 4.42873L7.02761 9.05651C7.03848 9.27383 7.21784 9.44445 7.43543 9.44445H8.56413C8.78172 9.44445 8.96108 9.27383 8.97196 9.05651L9.20335 4.42873C9.215 4.19549 9.02906 4 8.79552 4H7.20404C6.97051 4 6.78457 4.19549 6.79622 4.42873Z" fill="#475569"/>
</svg>
