<svg width="16" height="16" viewBox="0 0 16 16" fill="none" xmlns="http://www.w3.org/2000/svg">
<rect width="16" height="16" rx="8" fill="black" fill-opacity="0.6"/>
<path d="M3.8132 13.4751L4.74524 9.1001L1.59961 6.1001L5.79378 5.7251L7.42485 1.6001L9.05592 5.7251L13.2501 6.1001L11.386 7.8501H10.92C10.5122 7.8501 10.1045 7.9126 9.6967 8.1001L10.9782 6.9126L8.41514 6.6626L7.42485 4.1626L6.43456 6.6626L3.87145 6.9126L5.79378 8.7251L5.21126 11.4126L7.42485 9.9751L7.71611 10.1626C7.59961 10.4751 7.4831 10.8501 7.4831 11.1626L3.8132 13.4751ZM10.8035 13.6001L9.17242 11.7251L9.87145 10.9751L10.8035 11.9751L12.9006 9.7251L13.5996 10.6001L10.8035 13.6001Z" fill="white"/>
</svg>
