<svg xmlns="http://www.w3.org/2000/svg" xmlns:xlink="http://www.w3.org/1999/xlink" fill="none" version="1.1" width="18" height="18" viewBox="0 0 18 18"><defs><clipPath id="master_svg0_46_04283"><rect x="0" y="0" width="18" height="18" rx="0"/></clipPath></defs><g clip-path="url(#master_svg0_46_04283)"><g><g><path d="M15.497469066920877,13.087368676090241C15.497469066920877,13.087368676090241,13.317769066920876,13.087368676090241,13.317769066920876,13.087368676090241C12.421369066920876,13.087368676090241,12.263669066920876,12.443368676090241,12.241369066920877,12.120168676090241C12.241369066920877,12.120168676090241,12.241369066920877,9.991128676090241,12.241369066920877,9.991128676090241C12.241369066920877,9.095628676090241,11.484269066920877,9.01884867609024,11.264869066920877,9.01518867609024C11.264869066920877,9.01518867609024,10.765669066920877,9.01518867609024,10.765669066920877,9.01518867609024C10.765669066920877,9.01518867609024,9.151599066920877,9.01490867609024,9.151599066920877,9.01490867609024C8.249349066920876,9.01490867609024,8.173689066920877,8.24371867609024,8.169189066920877,8.04262867609024C8.169189066920877,8.04262867609024,8.169189066920877,5.981058676090241,8.169189066920877,5.981058676090241C8.169189066920877,5.10130867609024,7.532439066920877,4.96096867609024,7.234879066920876,4.94296867609024C7.234879066920876,4.94296867609024,6.722999066920877,4.94296867609024,6.722999066920877,4.94296867609024C6.722999066920877,4.94296867609024,5.110309066920877,4.94296867609024,5.110309066920877,4.94296867609024C4.096129066920876,4.94296867609024,4.096689066920876,4.00724867609024,4.096689066920876,4.00724867609024C4.096689066920876,4.00724867609024,4.096689066920876,1.7254686760902405,4.096689066920876,1.7254686760902405C4.078689066920877,1.4540626760902404,3.9377790669208763,0.8704686760902405,3.0509990669208764,0.8704686760902405C3.0509990669208764,0.8704686760902405,0.9365620669208765,0.8704686760902405,0.9365620669208765,0.8704686760902405C0.1184062669208765,0.8704686760902405,0.030093746920876505,1.4664376760902404,0.024468748920876502,1.6841246760902404C0.024468748920876502,1.6841246760902404,0.024468748920876502,16.122968676090238,0.024468748920876502,16.122968676090238C0.024468748920876502,16.122968676090238,-0.022781233079123497,17.12956867609024,1.0693090669208765,17.12956867609024C1.0693090669208765,17.12956867609024,15.205769066920876,17.12956867609024,15.205769066920876,17.12956867609024C16.090269066920875,17.12956867609024,16.279269066920875,16.631668676090243,16.313369066920878,16.32876867609024C16.313369066920878,16.32876867609024,16.313369066920878,14.18066867609024,16.313369066920878,14.18066867609024C16.313369066920878,13.31466867609024,15.811069066920876,13.12226867609024,15.497469066920877,13.087368676090241ZM15.283369066920876,15.362468676090241C15.278069066920876,15.55646867609024,15.188669066920877,16.11506867609024,14.303269066920876,16.11506867609024C14.303269066920876,16.11506867609024,2.0311890669208763,16.11506867609024,2.0311890669208763,16.11506867609024C1.3249690669208765,16.11506867609024,1.1514390669208765,15.708668676090241,1.1159990669208766,15.42486867609024C1.1159990669208766,15.42486867609024,1.1159990669208766,15.15856867609024,1.1159990669208766,15.15856867609024C1.1159990669208766,15.15856867609024,1.1159990669208766,14.20146867609024,1.1159990669208766,14.20146867609024C1.1159990669208766,14.20146867609024,1.1159990669208766,13.34786867609024,1.1159990669208766,13.34786867609024C1.1159990669208766,13.34786867609024,1.1159990669208766,12.84946867609024,1.1159990669208766,12.84946867609024C1.1159990669208766,12.84946867609024,1.1159990669208766,10.913668676090241,1.1159990669208766,10.913668676090241C1.1159990669208766,10.913668676090241,1.1159990669208766,10.01924867609024,1.1159990669208766,10.01924867609024C1.1159990669208766,10.01924867609024,1.1159990669208766,9.49921867609024,1.1159990669208766,9.49921867609024C1.1159990669208766,9.49921867609024,1.1159990669208766,8.854308676090241,1.1159990669208766,8.854308676090241C1.1159990669208766,8.854308676090241,1.1159990669208766,5.983308676090241,1.1159990669208766,5.983308676090241C1.1159990669208766,5.983308676090241,1.1159990669208766,5.816808676090241,1.1159990669208766,5.816808676090241C1.1159990669208766,5.816808676090241,1.1159990669208766,2.7714386760902405,1.1159990669208766,2.7714386760902405C1.1159990669208766,2.0345586760902403,1.5749990669208764,1.9034986760902404,1.8157490669208765,1.8846586760902404C1.8157490669208765,1.8846586760902404,2.3959690669208764,1.8846586760902404,2.3959690669208764,1.8846586760902404C2.5664090669208766,1.8922486760902404,3.1131590669208764,1.9923786760902404,3.1131590669208764,2.9663386760902406C3.1131590669208764,2.9663386760902406,3.1131590669208764,4.37737867609024,3.1131590669208764,4.37737867609024C3.1156890669208765,4.5984386760902405,3.1927490669208765,5.81118867609024,4.600969066920877,5.816528676090241C4.600969066920877,5.816528676090241,6.071629066920877,5.816528676090241,6.071629066920877,5.816528676090241C6.3019690669208765,5.824128676090241,7.045599066920876,5.92396867609024,7.045599066920876,6.91396867609024C7.045599066920876,6.91396867609024,7.045599066920876,8.46055867609024,7.045599066920876,8.46055867609024C7.066689066920876,8.89424867609024,7.272839066920876,10.01896867609024,8.834339066920876,10.01896867609024C8.834339066920876,10.01896867609024,9.981279066920877,10.01896867609024,9.981279066920877,10.01896867609024C9.981279066920877,10.01896867609024,11.039669066920876,10.01305867609024,11.039669066920876,11.173468676090241C11.039669066920876,11.173468676090241,11.039669066920876,12.53646867609024,11.039669066920876,12.53646867609024C11.039669066920876,12.53646867609024,11.039669066920876,12.55526867609024,11.039669066920876,12.55526867609024C11.042469066920876,12.739168676090241,11.122269066920877,14.211568676090241,12.985069066920877,14.20116867609024C12.985069066920877,14.20116867609024,14.265869066920876,14.20116867609024,14.265869066920876,14.20116867609024C14.471969066920877,14.20596867609024,15.281969066920876,14.27706867609024,15.283669066920876,15.12136867609024C15.283669066920876,15.12136867609024,15.283369066920876,15.362468676090241,15.283369066920876,15.362468676090241Z" fill="#5C5C5E" fill-opacity="1"/></g><g transform="matrix(-1,8.742277657347586e-8,-8.742277657347586e-8,-1,35.020842664233456,19.86398269637087)"><path d="M25.998890897975564,15.760052113590241C25.991010897975563,14.95765211359024,25.529480897975564,15.299652113590241,25.529480897975564,15.299652113590241C25.529480897975564,15.299652113590241,25.077230897975564,15.760052113590241,25.077230897975564,15.760052113590241C25.077230897975564,15.760052113590241,25.024920897975562,15.81265211359024,25.024920897975562,15.81265211359024C25.024920897975562,15.81265211359024,24.919170897975565,15.92093211359024,24.919170897975565,15.92093211359024C24.631450897975565,16.21371211359024,24.325730897975564,15.961712113590242,24.235450897975564,15.873962113590242C24.235450897975564,15.873962113590242,24.206760897975563,15.84527211359024,24.206760897975563,15.84527211359024C24.206760897975563,15.84527211359024,18.500764897975564,10.14574111359024,18.500764897975564,10.14574111359024C18.190264897975563,9.83580391359024,17.966671897975566,9.92889765359024,17.855015897975562,10.01833511359024C17.855015897975562,10.01833511359024,17.774578897975562,10.09905411359024,17.774578897975562,10.09905411359024C17.774578897975562,10.09905411359024,17.774015897975563,10.09989811359024,17.774015897975563,10.09989811359024C17.774015897975563,10.09989811359024,17.640983897975563,10.23264811359024,17.640983897975563,10.23264811359024C17.640983897975563,10.23264811359024,17.296734897975565,10.56114811359024,17.726203897975562,10.98977211359024C17.726203897975562,10.98977211359024,23.478890897975564,16.73515211359024,23.478890897975564,16.73515211359024C23.494920897975565,16.75090211359024,23.798950897975566,17.05915211359024,23.475800897975564,17.387362113590243C23.475800897975564,17.38793211359024,23.475800897975564,17.38793211359024,23.475510897975564,17.38849211359024C23.475510897975564,17.38849211359024,23.323080897975565,17.54290211359024,23.323080897975565,17.54290211359024C23.323080897975565,17.54290211359024,22.921730897975564,17.95099211359024,22.921730897975564,17.95099211359024C22.921730897975564,17.95099211359024,22.565670897975565,18.394242113590238,23.389730897975564,18.411962113590242C23.389730897975564,18.411962113590242,23.390580897975564,18.41224211359024,23.390580897975564,18.41224211359024C23.390580897975564,18.41224211359024,25.519640897975563,18.45724211359024,25.519640897975563,18.45724211359024C25.519640897975563,18.45724211359024,25.525550897975563,18.45724211359024,25.526950897975563,18.45724211359024C25.526950897975563,18.45724211359024,25.545800897975564,18.45724211359024,25.545800897975564,18.45724211359024C25.649010897975565,18.45836211359024,26.023920897975565,18.427992113590243,26.020550897975564,17.94790211359024C26.020550897975564,17.94705211359024,26.020550897975564,17.94705211359024,26.020830897975564,17.94593211359024C26.020830897975564,17.94593211359024,25.998890897975564,15.760052113590241,25.998890897975564,15.760052113590241Z" fill="#5C5C5E" fill-opacity="1"/></g></g></g></svg>