<svg width="65" height="66" viewBox="0 0 65 66" fill="none" xmlns="http://www.w3.org/2000/svg">
<path d="M56.3332 43.8332V39.7707C56.3332 35.979 52.5415 32.9998 48.7498 32.9998C44.9582 32.9998 41.1665 35.979 41.1665 39.7707V43.8332C39.5415 43.8332 37.9165 45.4582 37.9165 47.0832V56.5623C37.9165 58.4582 39.5415 60.0832 41.1665 60.0832H56.0623C57.9582 60.0832 59.5832 58.4582 59.5832 56.8332V47.354C59.5832 45.4582 57.9582 43.8332 56.3332 43.8332ZM52.8123 43.8332H44.6873V39.7707C44.6873 37.604 46.5832 36.2498 48.7498 36.2498C50.9165 36.2498 52.8123 37.604 52.8123 39.7707V43.8332ZM13.5415 32.9998H35.2082V38.4165H13.5415V32.9998ZM13.5415 41.1248H35.0728C33.6373 42.5873 32.7165 44.4832 32.4998 46.5415H13.5415V41.1248ZM32.4998 54.6665H13.5415V49.2498H32.4998V54.6665ZM37.9165 30.2915H10.8332V54.6665H5.4165V24.8748L24.3748 14.0415L43.3332 24.8748V28.7748C41.1394 29.7498 39.2707 31.2665 37.9165 33.1623V30.2915Z" fill="#FF5C1D"/>
</svg>
