<svg width="65" height="65" viewBox="0 0 65 65" fill="none" xmlns="http://www.w3.org/2000/svg">
<path d="M52.6498 51.4585H12.3498C10.511 51.4585 8.74748 50.728 7.44723 49.4278C6.14698 48.1275 5.4165 46.364 5.4165 44.5252V17.7668C5.4165 15.928 6.14698 14.1645 7.44723 12.8642C8.74748 11.564 10.511 10.8335 12.3498 10.8335H52.6498C54.4887 10.8335 56.2522 11.564 57.5524 12.8642C58.8527 14.1645 59.5832 15.928 59.5832 17.7668V44.5252C59.5832 46.364 58.8527 48.1275 57.5524 49.4278C56.2522 50.728 54.4887 51.4585 52.6498 51.4585ZM12.3498 16.2502C11.9476 16.2502 11.5618 16.41 11.2774 16.6944C10.993 16.9788 10.8332 17.3646 10.8332 17.7668V44.5252C10.8332 44.9274 10.993 45.3132 11.2774 45.5976C11.5618 45.882 11.9476 46.0418 12.3498 46.0418H52.6498C53.0521 46.0418 53.4379 45.882 53.7223 45.5976C54.0067 45.3132 54.1665 44.9274 54.1665 44.5252V17.7668C54.1665 17.3646 54.0067 16.9788 53.7223 16.6944C53.4379 16.41 53.0521 16.2502 52.6498 16.2502H12.3498Z" fill="#FF5C1D"/>
<path d="M32.4998 27.0835C31.7815 27.0835 31.0927 26.7982 30.5848 26.2902C30.0768 25.7823 29.7915 25.0935 29.7915 24.3752V13.5418C29.7915 12.8235 30.0768 12.1347 30.5848 11.6267C31.0927 11.1188 31.7815 10.8335 32.4998 10.8335C33.2181 10.8335 33.907 11.1188 34.4149 11.6267C34.9228 12.1347 35.2082 12.8235 35.2082 13.5418V24.3752C35.2082 25.0935 34.9228 25.7823 34.4149 26.2902C33.907 26.7982 33.2181 27.0835 32.4998 27.0835Z" fill="#FF5C1D"/>
<path d="M21.6668 27.0835C20.9485 27.0835 20.2597 26.7982 19.7517 26.2902C19.2438 25.7823 18.9585 25.0935 18.9585 24.3752V13.5418C18.9585 12.8235 19.2438 12.1347 19.7517 11.6267C20.2597 11.1188 20.9485 10.8335 21.6668 10.8335C22.3851 10.8335 23.074 11.1188 23.5819 11.6267C24.0898 12.1347 24.3752 12.8235 24.3752 13.5418V24.3752C24.3752 25.0935 24.0898 25.7823 23.5819 26.2902C23.074 26.7982 22.3851 27.0835 21.6668 27.0835Z" fill="#FF5C1D"/>
<path d="M43.3333 27.0835C42.615 27.0835 41.9262 26.7982 41.4183 26.2902C40.9103 25.7823 40.625 25.0935 40.625 24.3752V13.5418C40.625 12.8235 40.9103 12.1347 41.4183 11.6267C41.9262 11.1188 42.615 10.8335 43.3333 10.8335C44.0516 10.8335 44.7405 11.1188 45.2484 11.6267C45.7563 12.1347 46.0417 12.8235 46.0417 13.5418V24.3752C46.0417 25.0935 45.7563 25.7823 45.2484 26.2902C44.7405 26.7982 44.0516 27.0835 43.3333 27.0835Z" fill="#FF5C1D"/>
<path d="M43.3334 37.9167C42.6163 37.9068 41.9295 37.6262 41.4105 37.1313C41.1594 36.8783 40.9609 36.5781 40.8261 36.2482C40.6913 35.9182 40.623 35.5648 40.625 35.2084C40.6293 34.8545 40.7029 34.5048 40.8417 34.1792C40.9706 33.8468 41.1639 33.5431 41.4105 33.2855C41.6622 33.0316 41.9618 32.8302 42.2918 32.6927C42.6219 32.5552 42.9758 32.4844 43.3334 32.4844C43.6909 32.4844 44.0449 32.5552 44.3749 32.6927C44.705 32.8302 45.0045 33.0316 45.2563 33.2855C45.5029 33.5431 45.6961 33.8468 45.825 34.1792C45.9638 34.5048 46.0374 34.8545 46.0417 35.2084C46.0417 35.9267 45.7564 36.6156 45.2485 37.1235C44.7406 37.6314 44.0517 37.9167 43.3334 37.9167Z" fill="#FF5C1D"/>
<path d="M51.4583 56.8748C50.74 56.8748 50.0512 56.5895 49.5433 56.0816C49.0353 55.5737 48.75 54.8848 48.75 54.1665V48.7498C48.75 48.0315 49.0353 47.3427 49.5433 46.8348C50.0512 46.3268 50.74 46.0415 51.4583 46.0415C52.1766 46.0415 52.8655 46.3268 53.3734 46.8348C53.8813 47.3427 54.1667 48.0315 54.1667 48.7498V54.1665C54.1667 54.8848 53.8813 55.5737 53.3734 56.0816C52.8655 56.5895 52.1766 56.8748 51.4583 56.8748Z" fill="#FF5C1D"/>
<path d="M13.5418 56.8748C12.8235 56.8748 12.1347 56.5895 11.6267 56.0816C11.1188 55.5737 10.8335 54.8848 10.8335 54.1665V48.7498C10.8335 48.0315 11.1188 47.3427 11.6267 46.8348C12.1347 46.3268 12.8235 46.0415 13.5418 46.0415C14.2601 46.0415 14.949 46.3268 15.4569 46.8348C15.9648 47.3427 16.2502 48.0315 16.2502 48.7498V54.1665C16.2502 54.8848 15.9648 55.5737 15.4569 56.0816C14.949 56.5895 14.2601 56.8748 13.5418 56.8748Z" fill="#FF5C1D"/>
</svg>
