<svg width="65" height="65" viewBox="0 0 65 65" fill="none" xmlns="http://www.w3.org/2000/svg">
<path d="M27.4219 51.7969H9.14062V53.8281H27.4219V51.7969Z" fill="#FF5C1D"/>
<path d="M27.4219 55.8594H9.14062V57.8906H27.4219V55.8594Z" fill="#FF5C1D"/>
<path d="M51.7969 43.6719H49.7656V45.7031H51.7969V43.6719Z" fill="#FF5C1D"/>
<path d="M55.8594 43.6719H53.8281V45.7031H55.8594V43.6719Z" fill="#FF5C1D"/>
<path d="M11.1719 43.6719H9.14062V45.7031H11.1719V43.6719Z" fill="#FF5C1D"/>
<path d="M27.4219 43.6719H25.3906V45.7031H27.4219V43.6719Z" fill="#FF5C1D"/>
<path d="M15.2344 43.6719H13.2031V45.7031H15.2344V43.6719Z" fill="#FF5C1D"/>
<path d="M23.3594 43.6719H21.3281V45.7031H23.3594V43.6719Z" fill="#FF5C1D"/>
<path d="M19.2969 43.6719H17.2656V45.7031H19.2969V43.6719Z" fill="#FF5C1D"/>
<path d="M5.07812 61.9531H31.4844V39.6094H5.07812V61.9531ZM7.10938 42.6562C7.10938 42.3869 7.21638 42.1286 7.40684 41.9381C7.59731 41.7476 7.85564 41.6406 8.125 41.6406H28.4375C28.7069 41.6406 28.9652 41.7476 29.1557 41.9381C29.3461 42.1286 29.4531 42.3869 29.4531 42.6562V46.7188C29.4531 46.9881 29.3461 47.2464 29.1557 47.4369C28.9652 47.6274 28.7069 47.7344 28.4375 47.7344H8.125C7.85564 47.7344 7.59731 47.6274 7.40684 47.4369C7.21638 47.2464 7.10938 46.9881 7.10938 46.7188V42.6562ZM7.10938 50.7812C7.10938 50.5119 7.21638 50.2536 7.40684 50.0631C7.59731 49.8726 7.85564 49.7656 8.125 49.7656H28.4375C28.7069 49.7656 28.9652 49.8726 29.1557 50.0631C29.3461 50.2536 29.4531 50.5119 29.4531 50.7812V58.9062C29.4531 59.1756 29.3461 59.4339 29.1557 59.6244C28.9652 59.8149 28.7069 59.9219 28.4375 59.9219H8.125C7.85564 59.9219 7.59731 59.8149 7.40684 59.6244C7.21638 59.4339 7.10938 59.1756 7.10938 58.9062V50.7812Z" fill="#FF5C1D"/>
<path d="M33.5156 61.9531H59.9219V39.6094H33.5156V61.9531ZM35.5469 42.6562C35.5469 42.3869 35.6539 42.1286 35.8443 41.9381C36.0348 41.7476 36.2931 41.6406 36.5625 41.6406H56.875C57.1444 41.6406 57.4027 41.7476 57.5932 41.9381C57.7836 42.1286 57.8906 42.3869 57.8906 42.6562V46.7188C57.8906 46.9881 57.7836 47.2464 57.5932 47.4369C57.4027 47.6274 57.1444 47.7344 56.875 47.7344H36.5625C36.2931 47.7344 36.0348 47.6274 35.8443 47.4369C35.6539 47.2464 35.5469 46.9881 35.5469 46.7188V42.6562ZM35.5469 50.7812C35.5469 50.5119 35.6539 50.2536 35.8443 50.0631C36.0348 49.8726 36.2931 49.7656 36.5625 49.7656H56.875C57.1444 49.7656 57.4027 49.8726 57.5932 50.0631C57.7836 50.2536 57.8906 50.5119 57.8906 50.7812V58.9062C57.8906 59.1756 57.7836 59.4339 57.5932 59.6244C57.4027 59.8149 57.1444 59.9219 56.875 59.9219H36.5625C36.2931 59.9219 36.0348 59.8149 35.8443 59.6244C35.6539 59.4339 35.5469 59.1756 35.5469 58.9062V50.7812Z" fill="#FF5C1D"/>
<path d="M55.8594 55.8594H37.5781V57.8906H55.8594V55.8594Z" fill="#FF5C1D"/>
<path d="M55.8594 51.7969H37.5781V53.8281H55.8594V51.7969Z" fill="#FF5C1D"/>
<path d="M61.9531 35.5469H3.04688V37.5781H61.9531V35.5469Z" fill="#FF5C1D"/>
<path d="M43.6719 43.6719H41.6406V45.7031H43.6719V43.6719Z" fill="#FF5C1D"/>
<path d="M39.6094 43.6719H37.5781V45.7031H39.6094V43.6719Z" fill="#FF5C1D"/>
<path d="M47.7344 43.6719H45.7031V45.7031H47.7344V43.6719Z" fill="#FF5C1D"/>
<path d="M47.7345 7.10938H51.797V9.14062H47.7345V7.10938ZM39.0103 15.2344L43.0728 11.1719H56.4587L60.5212 15.2344H39.0103Z" fill="#FF5C1D"/>
<path d="M62.9688 2.03125H2.03125V6.09375H62.9688V2.03125Z" fill="#FF5C1D"/>
<path d="M55.8594 30.4688V26.4062C55.8594 26.1369 55.7524 25.8786 55.5619 25.6881C55.3714 25.4976 55.1131 25.3906 54.8438 25.3906H51.7969V27.4219H53.8281V30.4688H45.7031V27.4219H47.7344V25.3906H44.6875C44.4181 25.3906 44.1598 25.4976 43.9693 25.6881C43.7789 25.8786 43.6719 26.1369 43.6719 26.4062V30.4688H42.6562V34.5312H56.875V30.4688H55.8594Z" fill="#FF5C1D"/>
<path d="M7.10938 20.3125C6.03193 20.3125 4.99862 20.7405 4.23675 21.5024C3.47489 22.2642 3.04688 23.2976 3.04688 24.375V34.5312H5.07812V24.375C5.07812 23.8363 5.29213 23.3196 5.67306 22.9387C6.054 22.5578 6.57065 22.3438 7.10938 22.3438C7.6481 22.3438 8.16475 22.5578 8.54569 22.9387C8.92662 23.3196 9.14062 23.8363 9.14062 24.375V26.4062H11.1719V24.375C11.1719 23.2976 10.7439 22.2642 9.982 21.5024C9.22013 20.7405 8.18682 20.3125 7.10938 20.3125Z" fill="#FF5C1D"/>
<path d="M20.3125 30.4688H8.125V34.5312H20.3125V30.4688Z" fill="#FF5C1D"/>
<path d="M38.5938 30.4688H24.375V34.5312H38.5938V30.4688Z" fill="#FF5C1D"/>
</svg>
