<svg width="65" height="65" viewBox="0 0 65 65" fill="none" xmlns="http://www.w3.org/2000/svg">
<path d="M5.4165 13.5415V35.2082H10.8332V29.7915H27.0832L32.4998 24.3748L27.0832 18.9582H10.8332V13.5415H5.4165ZM54.1665 13.5415V18.9582H32.4998L37.9165 24.3748L32.4998 29.7915H54.1665V35.2082H59.5832V13.5415H54.1665ZM32.4998 35.2082C32.4998 35.2082 27.0832 41.0853 27.0832 44.6873C27.0832 46.1239 27.6539 47.5017 28.6697 48.5175C29.6855 49.5333 31.0632 50.104 32.4998 50.104C33.9364 50.104 35.3142 49.5333 36.33 48.5175C37.3458 47.5017 37.9165 46.1239 37.9165 44.6873C37.9165 41.0853 32.4998 35.2082 32.4998 35.2082Z" fill="#FF5C1D"/>
</svg>
