<svg xmlns="http://www.w3.org/2000/svg" xmlns:xlink="http://www.w3.org/1999/xlink" fill="none" version="1.1" width="24" height="24" viewBox="0 0 24 24"><defs><clipPath id="master_svg0_48_02768"><rect x="0" y="0" width="24" height="24" rx="0"/></clipPath></defs><g clip-path="url(#master_svg0_48_02768)"><g><path d="M3,11.5C3,10.6716,3.67157,10,4.5,10C5.32843,10,6,10.6716,6,11.5L6,14L18,14L18,11.5C18,10.6716,18.671599999999998,10,19.5,10C20.3284,10,21,10.6716,21,11.5L21,16.5C21,17.328400000000002,20.3284,18,19.5,18L4.5,18C3.67157,18,3,17.328400000000002,3,16.5L3,11.5Z" fill="#5C5C5E" fill-opacity="1" style="mix-blend-mode:passthrough"/></g><g><path d="M5.5,7.5C5.5,6.67157,6.17157,6,7,6L17,6C17.828400000000002,6,18.5,6.67157,18.5,7.5L18.5,9.20802C17.617,9.5938,17,10.4748,17,11.5L17,13L7,13L7,11.5C7,10.4748,6.38295,9.5938,5.5,9.20802L5.5,7.5Z" fill="#5C5C5E" fill-opacity="1" style="mix-blend-mode:passthrough"/></g></g></svg>