<svg width="65" height="66" viewBox="0 0 65 66" fill="none" xmlns="http://www.w3.org/2000/svg">
<path d="M56.875 24.8752V19.4585C56.875 14.9897 53.2188 11.3335 48.75 11.3335H37.9167C35.8312 11.3335 33.9354 12.146 32.5 13.446C31.0646 12.146 29.1687 11.3335 27.0833 11.3335H16.25C11.7812 11.3335 8.125 14.9897 8.125 19.4585V24.8752C3.65625 24.8752 0 28.5314 0 33.0002V46.5418C0 51.0106 3.65625 54.6668 8.125 54.6668V60.0835H13.5417V54.6668H51.4583V60.0835H56.875V54.6668C61.3438 54.6668 65 51.0106 65 46.5418V33.0002C65 28.5314 61.3438 24.8752 56.875 24.8752ZM37.9167 16.7502H48.75C50.2396 16.7502 51.4583 17.9689 51.4583 19.4585V26.9877C49.8062 28.4772 48.75 30.6168 48.75 33.0002V38.4168H35.2083V19.4585C35.2083 17.9689 36.4271 16.7502 37.9167 16.7502ZM13.5417 19.4585C13.5417 17.9689 14.7604 16.7502 16.25 16.7502H27.0833C28.5729 16.7502 29.7917 17.9689 29.7917 19.4585V38.4168H16.25V33.0002C16.25 30.6168 15.1937 28.4772 13.5417 26.9877V19.4585ZM59.5833 46.5418C59.5833 48.0314 58.3646 49.2502 56.875 49.2502H8.125C6.63542 49.2502 5.41667 48.0314 5.41667 46.5418V33.0002C5.41667 31.5106 6.63542 30.2918 8.125 30.2918C9.61458 30.2918 10.8333 31.5106 10.8333 33.0002V43.8335H54.1667V33.0002C54.1667 31.5106 55.3854 30.2918 56.875 30.2918C58.3646 30.2918 59.5833 31.5106 59.5833 33.0002V46.5418Z" fill="#FF5C1D"/>
</svg>
