<svg width="65" height="66" viewBox="0 0 65 66" fill="none" xmlns="http://www.w3.org/2000/svg">
<path d="M53.752 19.4444L53.7167 19.6042V19.768V19.7704V21.0322L54.9598 21.2482C56.0195 21.4324 57.0315 21.8268 57.9364 22.4082C58.8412 22.9896 59.6205 23.7462 60.2283 24.6335C60.8362 25.5208 61.2603 26.5208 61.4756 27.5745C61.6909 28.6283 61.6932 29.7145 61.4822 30.7691C61.2712 31.8237 60.8512 32.8254 60.247 33.7152C59.6428 34.605 58.8666 35.3648 57.9642 35.9499C57.0617 36.535 56.0513 36.9336 54.9924 37.1221C53.9336 37.3106 52.8477 37.2853 51.7987 37.0475L50.286 36.7047L49.994 38.2281C49.5917 40.3272 48.3719 42.1805 46.6031 43.3803C44.8343 44.5801 42.6613 45.0281 40.5622 44.6258C38.463 44.2234 36.6097 43.0037 35.4099 41.2349C34.2101 39.466 33.7621 37.2931 34.1645 35.1939L34.5061 33.4115H32.6913H30.3972H28.5601L28.9275 35.2115C29.3549 37.3062 28.9328 39.4848 27.7539 41.2683C26.5751 43.0517 24.736 44.2938 22.6413 44.7213C20.5467 45.1487 18.368 44.7266 16.5846 43.5477C14.8011 42.3689 13.5591 40.5298 13.1316 38.4351L12.8867 37.2351H11.6619H11.4711C11.471 37.2351 11.4708 37.2351 11.4707 37.2351C9.45751 37.2344 7.51748 36.4803 6.0324 35.121L5.07122 36.1712L6.0324 35.121C4.54722 33.7617 3.62465 31.8957 3.44626 29.8903C3.26788 27.8849 3.84661 25.8853 5.06855 24.2852L3.87641 23.3748L5.06855 24.2852C6.29049 22.6851 8.06711 21.6003 10.0487 21.2444L11.585 20.9684L11.2482 19.4444C10.9202 17.9598 11.0189 16.4128 11.5327 14.9819C12.0465 13.5511 12.9547 12.2948 14.1522 11.3581C15.3497 10.4214 16.7877 9.84254 18.3002 9.68841C19.8127 9.53427 21.338 9.81112 22.6998 10.487L24.2796 11.271L24.7999 9.58584C25.3079 7.94035 26.3297 6.50088 27.7154 5.47842C29.1012 4.45596 30.778 3.9043 32.5001 3.9043C34.2222 3.9043 35.8991 4.45596 37.2848 5.47842L38.1754 4.27141L37.2848 5.47842C38.6705 6.50088 39.6923 7.94035 40.2003 9.58584L40.7206 11.271L42.3004 10.487C43.6622 9.81112 45.1875 9.53427 46.7 9.68841C48.2125 9.84254 49.6505 10.4214 50.848 11.3581C52.0455 12.2948 52.9537 13.5511 53.4675 14.9819C53.9814 16.4128 54.08 17.9598 53.752 19.4444Z" fill="white" stroke="#FF5C1D" stroke-width="3"/>
<path d="M37.6001 62.0884H27.3994L29.1347 32.5884H35.8648L37.6001 62.0884Z" fill="white" stroke="#FF5C1D" stroke-width="3"/>
</svg>
