<svg width="65" height="65" viewBox="0 0 65 65" fill="none" xmlns="http://www.w3.org/2000/svg">
<path d="M40.1647 30.2519C44.3897 34.4769 44.3897 41.3561 40.1647 45.5811C35.9397 49.8061 29.0606 49.8061 24.8356 45.5811L40.1647 30.2519ZM16.2502 5.4165H48.7502C50.1868 5.4165 51.5645 5.98719 52.5803 7.00301C53.5961 8.01883 54.1668 9.39658 54.1668 10.8332V54.1665C54.1668 55.6031 53.5961 56.9808 52.5803 57.9967C51.5645 59.0125 50.1868 59.5832 48.7502 59.5832H16.2502C14.8136 59.5832 13.4358 59.0125 12.42 57.9967C11.4042 56.9808 10.8335 55.6031 10.8335 54.1665V10.8332C10.8335 9.39658 11.4042 8.01883 12.42 7.00301C13.4358 5.98719 14.8136 5.4165 16.2502 5.4165ZM18.9585 10.8332C18.2402 10.8332 17.5513 11.1185 17.0434 11.6264C16.5355 12.1343 16.2502 12.8232 16.2502 13.5415C16.2502 14.2598 16.5355 14.9487 17.0434 15.4566C17.5513 15.9645 18.2402 16.2498 18.9585 16.2498C19.6768 16.2498 20.3657 15.9645 20.8736 15.4566C21.3815 14.9487 21.6668 14.2598 21.6668 13.5415C21.6668 12.8232 21.3815 12.1343 20.8736 11.6264C20.3657 11.1185 19.6768 10.8332 18.9585 10.8332ZM27.0835 10.8332C26.3652 10.8332 25.6763 11.1185 25.1684 11.6264C24.6605 12.1343 24.3752 12.8232 24.3752 13.5415C24.3752 14.2598 24.6605 14.9487 25.1684 15.4566C25.6763 15.9645 26.3652 16.2498 27.0835 16.2498C27.8018 16.2498 28.4907 15.9645 28.9986 15.4566C29.5065 14.9487 29.7918 14.2598 29.7918 13.5415C29.7918 12.8232 29.5065 12.1343 28.9986 11.6264C28.4907 11.1185 27.8018 10.8332 27.0835 10.8332ZM32.5002 21.6665C28.1904 21.6665 24.0571 23.3786 21.0097 26.426C17.9622 29.4735 16.2502 33.6067 16.2502 37.9165C16.2502 42.2263 17.9622 46.3595 21.0097 49.407C24.0571 52.4545 28.1904 54.1665 32.5002 54.1665C36.8099 54.1665 40.9432 52.4545 43.9907 49.407C47.0381 46.3595 48.7502 42.2263 48.7502 37.9165C48.7502 33.6067 47.0381 29.4735 43.9907 26.426C40.9432 23.3786 36.8099 21.6665 32.5002 21.6665Z" fill="#FF5C1D"/>
</svg>
